<svg fill="none" viewBox="0 0 832 120" xmlns="http://www.w3.org/2000/svg"><path d="m71.0133 94.7266c-2.1786 4.4129-6.8759 9.3794-6.8759 9.3794-2.8922 2.484-10.4433 6.205-18.1611 4.213s-13.6057-8.5246-15.5036-11.9158c0 0-.3962-.3762-.9376-1.3287-3.3068-4.7596-4.5127-12.5656-4.5127-12.5656l-.5653 2.3106-.4155 1.4419s-1.8116 4.5633-5.1688 4.0172c-3.3573-.5461-5.3875-2.0222-7.3037-5.9503-1.0808-2.7459-3.2422-9.3999-3.24178-14.0488-.49724-5.1007.38224-20.2243 8.09948-23.0758 7.3631-.9888 8.0095 8.3807 8.0095 8.3807s.5727-8.8849 3.8448-15.2623c2.1055-5.824 9.8287-15.2069 20.494-16.0457 10.6624-.8432 18.5485 3.6545 24.2352 12.3725 5.6867 8.7179 6.3852 18.9648 6.3852 18.9648l.1214-.4321c1.6564-4.0837 3.1016-5.4309 5.8699-6.8078 3.0149-2.1501 9.375 1.13 9.879 13.8387.5031 12.7125-4.1078 20.5426-5.0146 22.1715-.9069 1.6289-4.7954 7.1826-9.7263 6.1061-4.9301-1.0802-4.1697-8.7917-4.1697-8.7917l-1.738 5.1437c-.7739 1.8772-2.5782 6.0824-3.6039 7.8845z" fill="#ffb7a6"></path><path d="m24.3513 54.4952s-.3002-5.5203-4.7049-7.1603c-2.4371-.9925-4.3755.5139-4.3755.5139l.1001-.4602s-1.349-2.4998-1.3483-4.0162c0 0-4.43749.2222-5.66587-3.4269-1.23294-3.6463.29967-6.8908 4.40487-9.4229 4.1051-2.5322 9.7494.075 10.0104 3.8115 0 0 3.4891-.1502 6.6776 3.6039 0 0 2.7664-5.5116 7.6096-8.8786 0 0-2.0323-2.2957-.5167-7.3897.4096-1.8468 1.6959-2.6799 1.6959-2.6799s-1.2997-1.4114-1.3865-2.5981c-.0867-1.1867-.1748-5.25 4.8101-6.58369 4.9849-1.33365 10.1567 2.52669 7.9406 8.58909 0 0 2.4299 1.7826 2.1856 5.6443 0 0 5.5665-.008 10.3235 2.4806l.3937-.5492s2.446-3.6062 7.299-2.9464c0 0 .0817-4.3753 4.4378-4.4937s4.4251 5.3477 3.624 6.7606-2.2436 1.973-2.2436 1.973l-.4163.1485s1.0309 2.7911-.9473 6.1385c-1.1661 1.8116-1.4287 2.1542-1.4287 2.1542l-.0033.2854 2.0018 3.7508.0952.1931s2.9524-2.1872 7.2175-1.671c1.755.5973 1.9515.7027 1.9515.7027s.0022-3.2169 4.1061-3.4372c4.1002-.2211 4.876 4.662 4.4208 6.0522-.4552 1.3901-.9137 2.5249-1.8557 2.9822-.942.4574-1.7677.6501-1.7677.6501l-1.837.1216s-.0102 1.2362-.6045 2.5451c-.8979 1.047-4.8709.8098-7.0723 7.7415-.0108 1.5809.1427 2.2805.1427 2.2805l-.0526 6.5839-.4733 4.7525-.4397 2.2557s-.0115-3.4785-1.6945-8.1906-2.7091-8.4622-1.9111-11.6628c0 0-3.0415-1.0064-4.327-4.6993s-1.1256-6.0134-1.1256-6.0134l-.1832-2.7791s.06-.8883-1.0295-1.3565-3.3929-.7967-3.3929-.7967-8.1884-.7113-12.2386-8.3052c0 0-2.7878 5.1778-7.6761 7.5631-3.6409 1.5868-7.0264 1.5127-7.0264 1.5127l-.863.0944s-.0384 3.5813-1.5357 5.7088-2.9233 3.044-2.9233 3.044-2.4743 2.5655-2.9464 4.916c.0135 1.3432.2206 4.2646.2206 4.2646s-.3601 3.6015-1.0003 4.9592c-.6402 1.3578-1.792 3.4821-1.792 3.4821s-2.1768 4.1703-2.5528 6.0793c-.3761 1.909-.7934 3.5934-.7934 3.5934s-.3806-7.8891.4783-18.432z" fill="#96f9f3"></path><path d="m37.1366 67.6887s2.907 12.9218 14.5554 13.6528c10.337.5986 13.8874-17.6159 13.8874-17.6159s-12.3192 11.0011-28.4428 3.9631z" fill="#f673ff"></path><path d="m17.3284 73.7023s-2.8742.2957-3.1367 5.3762c.2833 5.2737 4.6536 6.0989 6.0328 2.821 1.3791-3.2779.8528-5.7947.8528-5.7947s-.8752-3.6154-3.746-2.398z" fill="#fff6f3"></path><path d="m83.6863 85.6668s2.8719.3269 4.2131-4.5778c.8521-5.2148-3.2415-6.9516-5.2882-4.0462-2.0475 2.9092-2.0733 5.4782-2.0733 5.4782s.0811 3.717 3.1446 3.145z" fill="#fff6f3"></path><path d="m39.2071 72.8533s2.7514 10.6464 11.3084 11.9512c9.4299 1.4358 12.7523-13.8382 12.7523-13.8382s-3.8206 10.2318-11.206 10.4947c-5.3641.2127-11.542-5.2381-12.8509-8.6069z" fill="#ec8e89"></path><path d="m15.3712 47.3885s-2.0904-3.0372-1.1701-6.4031c0 0 2.448 4.0594 7.2497 3.8381 4.8017-.2214 6.84-5.719 4.2049-9.8191 0 0 2.3887 1.0172 3.8172 3.1698-.1034.4752-2.1592 4.0174-3.4389 8.8375-1.2796 4.8201-1.4539 8.2699-1.4539 8.2699s-.7566-6.1604-4.9343-7.943c-3.3502-1.1911-4.2964.4567-4.2964.4567z" fill="#5f9ac3"></path><path d="m38.2421 18.9942s-1.2159 4.7791 5.0582 3.8239c5.3909-.8221 6.6123-3.4289 6.1044-4.8052 0 0 2.5678 1.5813 2.3871 6.033 0 0-10.0134.04-14.729 5.018 0 0-1.8431-3.1833-.8558-6.0644.9872-2.8812 2.0359-4.009 2.0359-4.009z" fill="#5f9ac3"></path><path d="m68.2063 22.965s-2.7346 3.5278 1.6079 6.9491c4.3417 3.425 5.6529-.2792 5.6529-.2792s-.0298 2.9836-2.8714 6.1746c.131.0285-4.5174-7.1391-10.4857-9.2837 0 0 2.1519-3.5331 6.0963-3.5608z" fill="#5f9ac3"></path><path d="m80.8475 38.1923s-3.2874 3.3488-1.4514 8.6545c1.836 5.3058 4.874 2.0948 4.874 2.0948s-2.918 2.1907-4.6716 6.2533l-.2608.8563s-.9242-10.2724-4.4156-16.1107c0 0 2.5105-1.6328 5.9254-1.7482z" fill="#5f9ac3"></path><path d="m15.1205 82.3019s1.7251 5.1131 5.0967 2.5664c3.3708-2.543 1.5135-8.0571.7351-9.163 0 0 .709 3.497-.6913 5.9709-1.4002 2.4738-3.8476 2.8977-5.1367.6265z" fill="#ec8e89"></path><path d="m81.0374 80.1102s-2.4275 5.9537-.2081 7.7493c2.2156 1.7947 5.3173-3.6009 5.3173-3.6009s-2.1151 2.6436-4.3687.9151c-2.2535-1.7285-.7396-5.0673-.7396-5.0673z" fill="#ec8e89"></path><path d="m42.1102 71.6313s2.4411 4.2891 8.6139 5.1693c6.1719.884 10.5289-6.9857 10.5289-6.9857s-9.4026 9.9151-19.1428 1.8164z" fill="#c01fc3"></path><path d="m40.1719 11.6668c-.4408.441-.7468 1.0015-.9789 1.5819-.2016.5126-.3491 1.0645-.2922 1.6137.0568.5493.3496 1.095.8442 1.3436.4774.2371 1.0752.1555 1.5283-.126.4531-.2816.7763-.7404.9888-1.231.2039-.469.3184-.9771.5477-1.4367.2478-.4908.6243-.9066.9746-1.3281.2008-.2385.4084-.5264.346-.8339-.0527-.2623-.3011-.4534-.5606-.5216-1.0283-.2629-2.6698.203-3.4024.9411z" fill="#f8fffe"></path><path d="m10.0967 34.72c-.38999.55-.63134 1.1912-.80826 1.8424-.16504.6146-.2738 1.2768-.08124 1.8869.11124.3534.31701.6685.55711.952.25469.3062.56919.5901.95429.6935.6774.1826 1.3746-.2301 1.8741-.7249 1.1326-1.1174 1.7375-2.7454 1.6079-4.3294-.0193-.2354-.0515-.4658-.1327-.6872-.2792-.77-1.2177-1.2838-2.0223-1.0982-.7103.1668-1.5373.8883-1.948 1.4612z" fill="#f8fffe"></path><path d="m73.9686 20.1189c-.6028.2491-1.0628.8505-1.0873 1.5035-.02.5247.2306 1.0299.5709 1.4292.137.163.2959.3151.4804.4219.2753.1578.6003.2128.9202.2197.5894.0107 1.1892-.1528 1.6461-.5237.4569-.3708.7463-.9624.678-1.5494-.1526-1.3342-2.1154-1.9492-3.2083-1.5012z" fill="#f8fffe"></path><path d="m88.3695 41.9718c-.0999.4054-.1231.8902.1831 1.1763.1397.1323.3294.1971.5181.2303.5969.1024 1.2223-.1065 1.6862-.4915.7076-.5867 1.7467-2.7512.247-3.0813-1.3059-.2841-2.3622 1.0772-2.6306 2.167z" fill="#f8fffe"></path><path d="m8.74392 66.6781c.16342-.6972.43894-1.4054.98011-1.8755.54487-.4693 1.41187-.6178 1.97837-.1771.4293.3324.5909.9044.6893 1.4431.4383 2.3448.2235 4.81-.6155 7.0455-.1407.3769-.3056.7564-.5972 1.0339-.2916.2776-.7357.4279-1.1048.2692-.36917-.1587-.55997-.5607-.70163-.9364-.78604-2.0794-1.14301-4.6181-.63158-6.8072z" fill="#ffd1c1"></path><path d="m10.4492 75.5764c-.2862.2709-.4114.7021-.3096 1.0809.0516.1954.1737.3905.3688.4486.1585.0462.3343-.0057.4564-.1163.122-.1106.1982-.2625.2406-.4218.1062-.4158-.1495-1.5648-.7516-.9943z" fill="#ffd1c1"></path><path d="m94.9721 68.4415c.0308-.538.0628-1.0993-.1255-1.6026-.1186-.3197-.3642-.6318-.7038-.6743-.4384-.0562-.793.3487-1.0239.7256-.4878.7835-.8499 1.6374-1.1754 2.5032-.7154 1.9018-1.2559 3.9004-1.2713 5.9348-.0046.5438.0341 1.1047.2639 1.5975.1631.349.6187.9929 1.0647.9605 1.3806-.0955 1.7075-2.4815 1.9979-3.4921.5574-1.9322.857-3.9401.9764-5.948z" fill="#ffd1c1"></path><path d="m90.0961 80.842c-.037.3682.0149.8145.4172.9647 1.1062.4091 1.6728-1.4388 1.6693-2.2155-.0052-1.6157-1.6362-.1169-1.9246.5963-.0682.1694-.136.4094-.159.6591z" fill="#ffd1c1"></path><path d="m41.8724 28.3192c-.4134.2432-.8063.5182-1.1955.7941-.532.3741-1.0695.7549-1.4738 1.2626-.0814.1038-.1614.2197-.1749.3539-.0136.1342.0681.2813.2007.3023.0524.0114.1105-.0034.1611-.0198.9529-.2552 1.8782-.6535 2.8605-.7377.1677-.0144.3792.0041.4472.16s-.0579.3205-.1683.4493c-.1669.191-.3168.3935-.4533.6068-.0825.1271-.1595.2827-.104.4241.0491.1165.1802.1803.3032.1914s.252-.0236.3749-.0478c.217-.0429.4396-.0572.6602-.0445.0428.0015.0952.0129.1148.0485.0168.0311.0078.0722-.0032.1051-.0705.2159-.1418.4355-.2123.6514-.0213.062-.0389.1248-.0294.1895.0167.1212.14.2029.2606.2252.1721.0375.348-.0144.5155-.0642.4227-.1236.8637-.2589 1.1679-.5767.1621-.1686.2745-.3792.3683-.594.1039-.2439.1803-.5408.0414-.7669-.1046-.1678-.3015-.2537-.4882-.3139-.2779-.0918-.5689-.159-.8582-.1984-.0037-.1811.1831-.3011.3379-.4007.2386-.1597.4412-.3704.5917-.612.1018-.162.1769-.3808.0661-.5381-.0506-.0737-.1393-.1165-.2229-.1465-.2696-.0939-.5652-.0681-.8437-.1208-.0299-.0065-.0636-.0138-.082-.0374-.0597-.0679.0358-.1647.1154-.2061.2296-.1186 1.8368-1.0936 1.2433-1.4461-.2432-.143-.8486.0819-1.1005.1408-.4049.0961-.8006.2217-1.1862.3729-.4242.1664-.8324.3676-1.223.5961z" fill="#f8fffe"></path><path d="m30.2902 41.6401c-.0348.106-.0625.2333.0044.3223.0852.1126.2704.0901.38.0003.1097-.0898.1706-.2254.2573-.3359.1643-.2151.4287-.3496.697-.3578.0752-.0033.1591.0071.2092.0651.0443.0488.0492.1165.0503.1833.0122.2143.0198.4315.0863.6301.0665.1987.2128.3912.4182.4555.2712.0864.5563-.0711.7969-.2225.4183-.2656.8369-.5508 1.1313-.9492.2729-.3717.4171-.8184.5588-1.2539.0713-.2197.1442-.4468.1353-.676s-.1168-.4721-.3208-.5792c-.2681-.1367-.5856-.0099-.8596.1147-.2657.1225-.5301.257-.8025.3741-.3714.1583-.3351.1897-.4046-.1036-.0918-.3884-.0516-.7715-.5887-.5004-.9104.4564-1.4641 1.9388-1.745 2.8339z" fill="#f8fffe"></path><path d="m51.1474 78.2919c-.5411.1096-1.0627.3096-1.5718.5242-.2633.1112-.5389.2433-.6894.4849-.2024.3361-.0869.7962.1802 1.0815.2671.2854.6552.4287 1.039.52 1.0466.2511 2.1693.1701 3.1719-.2232.5867-.229 1.6808-.8453 1.5108-1.6308-.1701-.7855-1.3054-.8091-1.8929-.8467-.5874-.0377-1.1743-.0242-1.7515.0893z" fill="#fbbbff"></path><path d="m55.9365 77.9028c-.0863.2164-.1403.4829-.0053.6729.0903.1254.2447.1904.3951.2192.695.1198 1.4598-.6034 1.1734-1.3045-.3788-.9249-1.3217-.1934-1.564.4161z" fill="#fbbbff"></path><path d="m57.8269 29.5048c-1.0304.3951-.648 1.4658-.1802 2.1436.6564.9462 2.1602 2.0139 3.3652 1.8606.9988-.1237 1.3422-1.1619.8721-1.9735-.2884-.4938-.7717-.8301-1.1668-1.2296-.6722-.6752-1.9619-1.1595-2.8895-.8048z" fill="#f8fffe"></path><path d="m63.2269 34.2342c.2088.3551.646.4893 1.0485.5847.1496.0326.3014.0734.4518.0669.3044-.0121.5951-.1958.7326-.4676.331-.6569-.4017-1.4864-1.0529-1.5732-.724-.0948-1.6246.6224-1.18 1.3892z" fill="#f8fffe"></path><path d="m11.1386 53.2789s4.4341-3.4677 8.1954.3914c3.7613 3.8592 4.3541 11.0969 4.3541 11.0969s1.7131-8.2723.0277-12.7028c-1.6863-4.4267-7.4151-8.9333-12.5772 1.2145z" fill="#ec8e89"></path><path d="m79.6142 66.7784s1.4819-11.7672 6.5453-14.6513c5.0635-2.8841 8.0021 2.8652 8.0021 2.8652s-1.8829-7.4321-7.0978-7.0224c-5.215.4097-7.727 8.085-7.727 8.085s.6468 7.5121.2766 10.7273z" fill="#ec8e89"></path><path d="m70.911 43.3665c.0368.5331.2074 1.064.5391 1.4849.1508.1896.3589.3681.6001.3579.3007-.013.5112-.2964.6413-.5699.4169-.8537.9195-3.1466-.2653-3.663-1.3175-.5727-1.5724 1.59-1.5152 2.3901z" fill="#f8fffe"></path><path d="m49.5733 24.2806s2.7403.7881 2.9345 1.7513c.1941.9631.1705 1.0716.1705 1.0716s.2913-.979 1.0435-1.5365c.7514-.5537 2.9411-.8376 2.9411-.8376s-4.0302-1.1275-7.0896-.4488z" fill="#5f9ac3"></path><path d="m24.3822 57.9582s-5.6905 36.8455 16.631 48.4488c22.3178 11.603 34.189-14.544 37.7584-34.467 3.5664-19.9274-3.5737-46.322-26.381-47.9088-27.7233.5652-28.0054 33.9315-28.0054 33.9315z" stroke="#14041e" stroke-linecap="round" stroke-linejoin="round" stroke-width=".536102"></path><path d="m24.4836 56.0875s.0304-7.7605-5.732-9.0139-12.39358 10.4597-9.84076 28.3245c2.55286 17.8648 15.94056 19.1035 16.03166 6.2891" stroke="#14041e" stroke-linecap="round" stroke-linejoin="round" stroke-width=".536102"></path><path d="m79.338 56.0513s2.2545-7.6804 8.1326-8.1301c5.8781-.4496 10.8416 12.0613 5.8622 29.4046-4.9765 17.3478-18.4062 16.7348-16.7442 4.031" stroke="#14041e" stroke-linecap="round" stroke-linejoin="round" stroke-width=".536102"></path><path d="m15.0037 61.491s-.8185 3.1686-.1976 5.3767" stroke="#14041e" stroke-linecap="round" stroke-linejoin="round" stroke-width=".536102"></path><path d="m16.9405 63.664s-1.3888.0428-2.2499.4707" stroke="#14041e" stroke-linecap="round" stroke-linejoin="round" stroke-width=".536102"></path><path d="m88.4735 62.9208s.9698 3.1265.4606 5.3592" stroke="#14041e" stroke-linecap="round" stroke-linejoin="round" stroke-width=".536102"></path><path d="m86.6393 65.1831s1.3884-.0232 2.269.3603" stroke="#14041e" stroke-linecap="round" stroke-linejoin="round" stroke-width=".536102"></path><path d="m15.5461 47.6582s-3.4111-4.6765-.144-9.5894 10.3806-5.0429 14.1026-.048" stroke="#14041e" stroke-linecap="round" stroke-linejoin="round" stroke-width=".536102"></path><path d="m22.8203 34.1329s-.9098-4.4655-6.1842-4.539-8.69853 4.9306-8.73827 8.1041c-.03975 3.1735 2.85517 6.2054 6.12827 5.679" stroke="#14041e" stroke-linecap="round" stroke-linejoin="round" stroke-width=".536102"></path><path d="m36.98 29.0461s-1.9459-2.5668-.4344-7.3718c2.154-6.8401 15.6039-7.2926 15.2457 2.3717" stroke="#14041e" stroke-linecap="round" stroke-linejoin="round" stroke-width=".536102"></path><path d="m38.1117 19.1153s-2.4113-2.625-.7864-6.2217c1.6249-3.59679 8.4929-4.66975 11.5102-1.1017 2.6836 3.4091.7649 6.6089.7649 6.6089" stroke="#14041e" stroke-linecap="round" stroke-linejoin="round" stroke-width=".536102"></path><path d="m62.1041 26.5437s3.8039-6.2461 10.2846-2.4578c4.3877 2.5651 3.7731 7.5886.2432 11.8721" stroke="#14041e" stroke-linecap="round" stroke-linejoin="round" stroke-width=".536102"></path><path d="m69.9243 23.0645s-.1275-3.9897 3.5851-4.4832c3.7127-.4935 5.6383 3.6796 4.7122 6.0097-.9299 2.3293-3.0106 2.8329-3.0106 2.8329" stroke="#14041e" stroke-linecap="round" stroke-linejoin="round" stroke-width=".536102"></path><path d="m74.9213 39.9443s5.9946-3.724 9.9753-.4049c3.9807 3.319 1.576 8.5371 1.576 8.5371" stroke="#14041e" stroke-linecap="round" stroke-linejoin="round" stroke-width=".536102"></path><path d="m84.2094 39.0487s-.4207-2.4076 2.8485-3.3306c3.2692-.9231 5.6341 1.825 5.6435 4.8446.0086 3.0233-2.1597 5.2086-5.425 4.6003" stroke="#14041e" stroke-linecap="round" stroke-linejoin="round" stroke-width=".536102"></path><path d="m23.9597 74.1883s.1289-5.7092 2.6817-9.6802c2.5482-3.968 3.7477-7.771 3.2601-12.5561-.4883-4.7814 4.9376-7.5122 6.0509-9.8016 1.1132-2.2894 1.1646-5.3545 1.1646-5.3545s9.9446 1.1598 15.6283-9.0979c0 0 3.2925 6.0145 8.7182 7.5003s7.6993.9066 8.1212 2.8402c.422 1.9337-1.2951 10.5304 5.3858 13.6687 0 0-.8131 4.9451 1.7175 11.1112s1.6757 11.3215 1.4338 12.3976" stroke="#14041e" stroke-linecap="round" stroke-linejoin="round" stroke-width=".536102"></path><path d="m16.3242 74.2284c-1.256.8201-1.9143 2.1347-2.0464 3.6069-.0997 1.107.0404 2.2465.4247 3.2902.3406.9205.9615 2.1019 1.9338 2.478 1.3597.523 2.5869-.3622 3.3292-1.4508 1.0704-1.5699 1.3504-3.6682 1.1307-5.5226-.1317-1.1063-.5467-2.4232-1.6586-2.8963-1.0009-.4254-2.1778-.1131-3.1104.4991z" stroke="#14041e" stroke-linecap="round" stroke-linejoin="round" stroke-width=".536102"></path><path d="m15.9319 75.7262c-.7632.5002-1.1687 1.3016-1.2469 2.2016-.0609.6765.0265 1.3735.2607 2.0083.2069.5623.5868 1.2837 1.1802 1.5107.8275.3211 1.5765-.2214 2.0308-.8867.6552-.9587.8239-2.2387.6897-3.3691-.0803-.6759-.3327-1.4793-1.0143-1.7686-.6093-.2619-1.3291-.0696-1.9002.3038z" stroke="#14041e" stroke-linecap="round" stroke-linejoin="round" stroke-width=".536102"></path><path d="m87.4141 77.4374c.8019 1.2678.8546 2.7371.3633 4.1311-.3691 1.0484-.9699 2.0267-1.753 2.8165-.6922.6959-1.7477 1.5127-2.7884 1.4509-1.4541-.089-2.2027-1.404-2.4257-2.7026-.3216-1.8726.2952-3.8977 1.2654-5.4933.5793-.9517 1.5038-1.9772 2.7118-1.9456 1.0871.0287 2.028.8016 2.622 1.746z" stroke="#14041e" stroke-linecap="round" stroke-linejoin="round" stroke-width=".536102"></path><path d="m87.1515 78.963c.4865.772.5225 1.6694.2198 2.5206-.2256.6407-.5946 1.2383-1.0714 1.7185-.4217.4256-1.067.924-1.701.8841-.8862-.0517-1.3421-.8563-1.479-1.6502-.1979-1.1443.1804-2.3787.772-3.3512.3538-.5814.9171-1.2074 1.6573-1.1875.663.0149 1.2379.4888 1.6023 1.0657z" stroke="#14041e" stroke-linecap="round" stroke-linejoin="round" stroke-width=".536102"></path><path d="m37.041 67.3228s2.9218 12.8897 13.9329 13.9563c11.0149 1.0674 14.7607-18.0452 14.7607-18.0452s-11.8257 12.0647-28.6973 4.0881z" stroke="#14041e" stroke-linecap="round" stroke-linejoin="round" stroke-width=".536102"></path><path d="m37.353 67.681s7.2857 8.717 15.7418 6.6845c8.4562-2.0325 12.5353-10.6249 12.5353-10.6249" stroke="#14041e" stroke-linecap="round" stroke-linejoin="round" stroke-width=".536102"></path><path d="m27.592 50.6071s.5745 2.6917-.34 6.7879c-.9145 4.0961-3.3206 5.0149-3.2539 17.2836" stroke="#14041e" stroke-linecap="round" stroke-linejoin="round" stroke-width=".536102"></path><path d="m77.3493 54.7605s-.6195 1.5151.3879 4.9908c1.0067 3.4794 1.1135 8.0328.7066 12.4079" stroke="#14041e" stroke-linecap="round" stroke-linejoin="round" stroke-width=".536102"></path><path d="m172.826 53.2346s.655-8.3638-4.139-8.2713c-4.797.0925-8.593 8.1033-8.404 24.2683.191 16.165 7.75 17.3773 7.75 17.3773s2.797.7573 4.06-2.7722c.763-2.3662.733-3.0706.733-3.0706s.665 26.3439 19.615 28.1719c19.253 3.378 23.866-15.272 23.866-15.272s1.721-4.5171 2.491-9.6537l.58-3.6748s.861 6.9532 6.05 6.3885c5.19-.5646 8.642-7.3252 8.194-26.2247-.606-13.0849-3.937-14.5768-5.227-15.3756s-5.457-.7497-6.621 4.1206c-.781 3.5616-.851 4.0223-.851 4.0223s.151-3.7334-.384-6.5944c-.534-2.8609-2.932-21.0995-22.098-21.8435-17.723-.0189-25.424 15.6457-25.615 28.4021z" fill="#e67a61"></path><path d="m172.087 47.1394-.462-21.124s-1.116-6.8739 1.14-8.2827c2.655-1.658 10.458-6.4377 21.606-6.7474 11.147-.3116 19.604-.6741 25.133.8309 4.938 1.5127 6.621 2.3417 7.034 4.7797.078 2.0376-.946 10.3731-.946 10.3731l-2.623 19.5113s-1.66 2.4777-2.043 7.1534c0 0 1.409-25.7677-20.18-28.8024-23.66-.9272-26.895 21.3167-26.895 21.3167l-.678 3.8769-.194 2.4229-.894-5.3065z" fill="#fbbbff"></path><path d="m172.432 68.4968s-.618 13.7252 2.579 23.951c3.199 10.2242 9.354 16.2822 19.965 16.7182s15.942-4.409 19.481-11.1454c3.537-6.736 4.168-13.3739 4.168-13.3739l.678-3.7806.681-5.8202.435-5.8145.117-1.6429s-1.524 10.951-4.627 17.7853c-3.101 6.8323-5.863 8.6339-9.025 9.5441-3.671.221-6.143-4.2509-6.143-4.2509s-1.089-2.1811-1.38-2.4341c-.291-.255-3.144-.6006-3.926.2719-.436.6723-.546 1.1085-.546 1.1085s-2.217 5.924-8.251 5.2329c-6.033-.6912-10.201-7.6388-11.884-14.0802-1.684-6.4415-2.052-10.1787-2.052-10.1787l-.272-2.0905z" fill="#6f350f"></path><path d="m195.769 67.7348s-.241-.9442-1.129-.644c-.887.2984-1.888.6629-1.888.6629s-2.944.7459-6.27 1.0726c-3.325.3267-3.735.8536-3.749 1.235-.013.3815 1.694 1.0179 6.293 1.2351 4.598.2171 5.852-.0189 6.233-.3815.382-.3626 1.037-2.1434.508-3.1801z" fill="#6f350f"></path><path d="m198.478 67.0879s-.939-.2644-1.141.9347c-.202 1.1992.216 2.8893 1.286 3.1613 1.071.2719 3.126.3456 6.342.0717 3.216-.2719 5.488-.6364 5.943-.8365.455-.2002.109-.6176.109-.6176s-.31-.6666-3.144-.9574c-2.835-.2908-5.573-.5816-5.573-.5816l-3.822-1.1765z" fill="#6f350f"></path><path d="m182.794 72.4812s1.556 10.8491 15.804 10.5583c8.504-.508 11.195-6.906 11.195-6.906s.508-.982 1.018-2.2888c.508-1.3087.472-1.4164.472-1.4164s-15.179 2.4172-28.487.0548z" fill="#f673ff"></path><path d="m165.755 80.962s-6.058.897-6.953 7.7539c-.363 6.8928 4.398 8.3752 6.541 8.3242 2.144-.0509 3.781-1.2501 4.616-3.6843.836-2.4342.679-3.7806.679-3.7806l-.079-1.354-.236-1.9621-1.558.4626s-.198 5.4576-3.905 4.4643c0 0-1.575-.6534-1.309-3.4898.266-2.8346 1.987-4.1678 1.987-4.1678s1.114-1.1142 1.188-1.7449c.073-.6307.194-1.1878-.969-.8234z" fill="#fff"></path><path d="m221.558 85.4223 1.501.8932s.24 5.367 3.573 4.7211c3.199-1.0216.88-6.2658.88-6.2658s-.672-1.2275-1.18-1.6505c-.508-.4249-1.6-1.9016-1.054-2.3624s4.884.5778 6.978 4.6682c2.096 4.0903.674 10.8982-5.073 11.0927-5.746.1945-5.854-6.5699-5.922-8.2884s.297-2.8081.297-2.8081z" fill="#fff"></path><path d="m199.547 10.8378s-9.074.0057-15.907 1.9923c-6.832 1.9866-10.903 4.3604-11.17 5.4519-.266 1.0896-.872 2.2529 3.417 2.302 4.288.0491 9.158 0 9.158 0l17.482-.3512s12.83-.255 15.3-.508c2.472-.255 5.984-.9084 6.857-1.2728.872-.3626 1.792-1.169 1.852-1.8564.061-.6874-.447-3.1971-7.48-4.8721-7.032-1.6751-19.513-.8838-19.513-.8838z" fill="#f673ff"></path><path d="m162.899 50.2173s1.479-3.4653 5.768-2.9309c4.747.5911 3.803 12.0426 3.803 12.0426l.325-7.9711s-.079-7.1628-4.587-6.3565c-3.322.2021-5.309 5.2178-5.309 5.2178z" fill="#af4a23"></path><path d="m220.804 55.7911s-.026-9.0645 4.076-10.6621c4.101-1.5976 6.791 2.2906 7.627 7.0514 0 0-2.106-5.7749-5.941-4.5587-3.835 1.2143-5.363 7.7936-5.797 13.1718z" fill="#af4a23"></path><path d="m211.285 72.4244c-.231 4.0054-5.167 14.9734-15.342 13.2644-10.177-1.709-13.145-13.2115-13.145-13.2115s1.52 7.8691 9.516 9.8312c7.123 2.3624 12.067-.7629 12.937-1.1992.873-.4362 2.618-2.1811 3.016-2.6891.4-.508.837-1.235.837-1.235l.908-1.3805.653-1.4182.618-1.9621z" fill="#af4a23"></path><path d="m172.815 52.3642s-.147-2.708-.417-3.6881c-.272-.982-.382-1.3993-.382-1.3993l-.181-11.6611s.546 3.4464 1.654 4.2093c1.109.763 3.611-7.8502 11.654-11.34 0 0-6.882 4.1678-9.644 12.2125-.582 1.6467-.873 2.81-.873 2.81s-1.212 3.5861-1.811 8.8567z" fill="#f673ff"></path><path d="m220.997 52.2149s.735-11.6668-6.777-20.4858c0 0 4.555 2.5683 6.554 8.2374 2 5.6691 3.496-3.1462 3.496-3.1462l-1.401 9.8256s-.91 1.5825-1.872 5.569z" fill="#f673ff"></path><path d="m175.266 93.0636s6.397 7.8504 8.142 8.0694c1.745.217 3.125-.582 4.324.327 1.199.908 2.179 3.501 3.38 3.816 3.743.982 4.939-2.247 7.124-2.472 2.472-.255 4.009 2.434 6.432 1.029 2.422-1.405 3.742-3.9011 6.214-5.0644s5.858-6.3716 5.858-6.3716-4.045 18.365-22.064 16.839c-16.069-.836-19.411-16.1742-19.411-16.1742" fill="#462310"></path><path d="m198.051 24.8511s-23.55-1.5258-25.295 29.4388c-1.745 30.9647.551 54.8151 23.815 54.9511 23.069.136 23.977-30.6639 24.345-56.5468.046-3.1348-.271-6.2658-1.016-9.3119-4.847-19.8588-21.849-18.5312-21.849-18.5312z" stroke="#130d1c" stroke-linecap="round" stroke-linejoin="round" stroke-width=".339918"></path><path d="m164.704 84.4713c3.273 3.6126 7.32 3.046 8.124-3.707" stroke="#130d1c" stroke-linecap="round" stroke-linejoin="round" stroke-width=".339918"></path><path d="m172.761 54.2853s1.139-11.5573-5.839-8.9399-8.141 26.168-5.04 34.3091c.321.8441.684 1.6221 1.073 2.3284" stroke="#130d1c" stroke-linecap="round" stroke-linejoin="round" stroke-width=".339918"></path><path d="m227.947 85.6721c-3.541 2.5437-7.796.6647-8.536-5.5426" stroke="#130d1c" stroke-linecap="round" stroke-linejoin="round" stroke-width=".339918"></path><path d="m220.995 54.2873s-.07-10.9756 6.889-9.3269c7.252 1.7203 6.644 26.3965 3.99 34.6943-.391 1.2199-.872 2.2831-1.416 3.1895" stroke="#130d1c" stroke-linecap="round" stroke-linejoin="round" stroke-width=".339918"></path><path d="m172.092 47.6165s-.231-14.0008-.425-20.4951c-.195-6.4944-1.713-8.7227 4.328-11.3401s9.894-5.2404 29.616-5.112c17.37.1133 20.682 3.1745 20.941 6.0808s-3.626 29.994-3.626 29.994" stroke="#130d1c" stroke-linecap="round" stroke-linejoin="round" stroke-width=".339918"></path><path d="m173.169 17.3794s-2.807 2.8647 1.263 3.1555c4.071.2909 34.79-.2171 43.468-.8724 8.675-.6553 9.064-2.6702 8.239-4.3396" stroke="#130d1c" stroke-linecap="round" stroke-linejoin="round" stroke-width=".339918"></path><path d="m172.317 66.2799s.612 16.8562 7.711 24.8971c3.102 3.5144 6.224 4.0639 8.726 3.5994 2.833-.5269 5.122-2.5815 6.121-5.2839.266-.7213.538-1.235.927-1.3577.776-.2418 3.246-.4363 3.635.2417.389.6779 4.58 10.224 10.83 4.942 6.251-5.2819 8.744-15.8402 10.271-26.2851" stroke="#130d1c" stroke-linecap="round" stroke-linejoin="round" stroke-width=".339918"></path><path d="m182.794 72.4244s1.163 9.5347 13.617 10.6489c12.504.8234 14.878-10.6489 14.878-10.6489s-12.504 2.5438-28.495 0z" stroke="#130d1c" stroke-linecap="round" stroke-linejoin="round" stroke-width=".339918"></path><path d="m182.917 72.6001s4.047 4.3301 12.381 4.9609c11.617 1.0046 15.991-5.1366 15.991-5.1366" stroke="#130d1c" stroke-linecap="round" stroke-linejoin="round" stroke-width=".339918"></path><path d="m194.235 67.2629s-1.987.8725-5.573 1.2596-6.396.7761-5.864 1.6958c.533.9216 11.291 1.7449 12.358.7762 1.067-.9688 1.309-4.9421-.921-3.7316z" stroke="#130d1c" stroke-linecap="round" stroke-linejoin="round" stroke-width=".339918"></path><path d="m199.04 67.2629s1.986.8725 5.572 1.2596c3.587.3871 7.012.8271 6.48 1.7468-.533.9216-11.907 1.6939-12.974.7252-1.067-.9688-1.309-4.9421.922-3.7316z" stroke="#130d1c" stroke-linecap="round" stroke-linejoin="round" stroke-width=".339918"></path><path d="m170.34 86.1855c2.491 14.4035-11.17 13.0453-11.557 4.2263-.336-7.6651 6.396-9.3043 6.396-9.3043s2.296-.8366 1.367 1.067c-.706 1.4446-3.258 2.6173-3.001 6.6869.238 3.792 5.025 3.5861 5.22-2.0924" stroke="#130d1c" stroke-linecap="round" stroke-linejoin="round" stroke-width=".339918"></path><path d="m222.586 84.8508c-2.491 14.4031 11.153 13.4835 11.542 4.6626.157-3.5559-1.211-5.8164-2.719-7.2157-1.744-1.6165-3.679-2.0886-3.679-2.0886s-2.296-.8366-1.367 1.0669c.498 1.0217 1.922 1.9073 2.621 3.7788.289.7742.455 1.7166.379 2.9082-.238 3.792-5.025 3.5861-5.219-2.0924" stroke="#130d1c" stroke-linecap="round" stroke-linejoin="round" stroke-width=".339918"></path><path d="m166.183 60.901s-.654 2.708-.327 4.9156" stroke="#130d1c" stroke-linecap="round" stroke-linejoin="round" stroke-width=".339918"></path><path d="m167.396 63.3613s-1.024-.17-1.584 0" stroke="#130d1c" stroke-linecap="round" stroke-linejoin="round" stroke-width=".339918"></path><path d="m227.075 66.1034s.538-2.7345.117-4.9251" stroke="#130d1c" stroke-linecap="round" stroke-linejoin="round" stroke-width=".339918"></path><path d="m225.761 63.7053s1.031.1265 1.582-.068" stroke="#130d1c" stroke-linecap="round" stroke-linejoin="round" stroke-width=".339918"></path><path d="m180.452 53.6744s6.058 4.7494 12.115 0" stroke="#130d1c" stroke-linecap="round" stroke-linejoin="round" stroke-width=".339918"></path><path d="m201.034 53.7623s6.058 4.7494 12.114 0" stroke="#130d1c" stroke-linecap="round" stroke-linejoin="round" stroke-width=".339918"></path><path d="m197.629 57.8405s1.024 4.1998.588 4.5624c-.437.3626-2 .7271-2.945 0" stroke="#130d1c" stroke-linecap="round" stroke-linejoin="round" stroke-width=".339918"></path><path d="m186.536 17.1432c.808.1284 1.551-.4079 2.253-.8253.627-.372 1.354-.6742 2.068-.5325.54.1076 1.052.4626 1.592.3607.421-.0794.734-.4174 1.084-.6629.963-.6798 2.364-.659 3.308.0491" stroke="#130d1c" stroke-linecap="round" stroke-linejoin="round" stroke-width=".339918"></path><path d="m204.142 16.3912c.808.1284 1.55-.4079 2.253-.8253.626-.372 1.354-.6741 2.067-.5325.541.1076 1.052.4627 1.592.3607.421-.0793.735-.4173 1.084-.6628.963-.6799 2.365-.6591 3.309.0491" stroke="#130d1c" stroke-linecap="round" stroke-linejoin="round" stroke-width=".339918"></path><path d="m173.768 22.3325c-.144-.0056-.295-.0094-.423.0548-.291.1473-.317.5457-.304.8706l.134 3.3293c.024.6137.049 1.2312.181 1.8298.104.4722.378 1.0141.861 1.0349.435.017.748-.4003.963-.7799.614-1.0764 1.149-2.2454 2.102-3.0366.587-.4872 2.88-1.5731 2.293-2.6589-.408-.7535-2.419-.5156-3.094-.542-.904-.0359-1.807-.0699-2.711-.1058z" fill="#fffffd" stroke="#130d1c" stroke-linecap="round" stroke-linejoin="round" stroke-width=".339918"></path><path d="m189.407 79.9869s2.597 1.7846 7.023 2.0018" stroke="#fff" stroke-linecap="round" stroke-linejoin="round" stroke-width=".755374"></path><path d="m197.694 81.9835s1.855.1076 3.199-.3286" stroke="#fff" stroke-linecap="round" stroke-linejoin="round" stroke-width=".755374"></path><path d="m201.925 81.4004s.999-.2153 1.363-.4174" stroke="#fff" stroke-linecap="round" stroke-linejoin="round" stroke-width=".755374"></path><path d="m196.614 26.4811s-3.235.0604-7.258 1.9998" stroke="#fff" stroke-linecap="round" stroke-linejoin="round" stroke-width=".755374"></path><path d="m198.437 26.4817s1.308-.3267 2.708 0" stroke="#fff" stroke-linecap="round" stroke-linejoin="round" stroke-width=".755374"></path><path d="m314.478 68.4951s-.158-6.4442-3.586-11.8015c-3.427-5.3573-18.832-20.5949-20.509-25.6185-1.673-5.0235 5.691-6.6966 10.214-4.3517 0 0-.038-8.5409 5.926-9.8803 5.961-1.3393 7.955 4.5229 7.955 4.5229s1.677-9.3239 9.393-8.6564c7.719.6718 8.057 7.8991 8.057 7.8991s2.366-10.582 11.532-9.4567c8.541 1.0484 8.485 12.0711 8.485 12.0711s3.907-6.2088 10.604-5.2032c6.696 1.0055 4.706 8.0359 4.706 8.0359s5.58-6.7565 11.537-2.8455c11.219 7.3685-22.606 26.4571-23.432 43.7615" fill="#a238ff"></path><path d="m316.664 61.2173c-2.88 8.297-4.193 17.8692-3.346 26.4871.783 7.989 4.347 17.3426 13.179 20.2526 8.109 2.674 17.339-.642 22.012-7.266 6.846-9.7088 7.8-23.1449 6.14-34.1891-.676-4.5101-1.836-9.2427-4.476-13.1323-3.406-5.0235-10.757-7.7835-17.107-7.1673-9.316.9028-13.856 7.6851-16.402 15.0236z" fill="#ff928d"></path><path d="m313.823 71.8644s1.964-11.9427-4.844-9.8032-7.976 22.9227-2.558 26.3245c3.786 2.3791 6.401-.7745 6.542-5.8922" fill="#ff928d"></path><path d="m355.037 71.3729s-.809-12.0754 5.768-9.2898c6.572 2.7857 5.734 23.5817.013 26.4486-3.997 2.0069-6.295-1.3864-5.948-6.4955" fill="#ff928d"></path><path d="m316.67 61.2642c-2.88 8.297-4.193 17.8692-3.346 26.4871.783 7.9889 4.347 17.3427 13.179 20.2527 8.109 2.674 17.339-.642 22.011-7.266 6.847-9.709 7.801-23.1451 6.141-34.1892-.676-4.5101-1.836-9.2427-4.476-13.1323-3.406-5.0236-10.758-7.7835-17.108-7.1674-9.315.9029-13.855 7.6852-16.401 15.0237z" stroke="#14041e" stroke-linecap="round" stroke-linejoin="round" stroke-width=".641852"></path><path d="m313.932 72.1144s1.964-11.9427-4.844-9.8032c-6.812 2.1395-7.976 22.9226-2.559 26.3245 3.787 2.3791 6.402-.7745 6.543-5.8922" stroke="#14041e" stroke-linecap="round" stroke-linejoin="round" stroke-width=".641852"></path><path d="m355.146 71.6229s-.809-12.0754 5.768-9.2898c6.573 2.7857 5.734 23.5817.013 26.4486-3.996 2.0069-6.294-1.3864-5.948-6.4955" stroke="#14041e" stroke-linecap="round" stroke-linejoin="round" stroke-width=".641852"></path><path d="m307.635 71.4315s-1.506 3.7741-.5 6.0719" stroke="#14041e" stroke-linecap="round" stroke-linejoin="round" stroke-width=".641852"></path><path d="m309.306 74.1072s-1.69-.3338-2.396 0" stroke="#14041e" stroke-linecap="round" stroke-linejoin="round" stroke-width=".641852"></path><path d="m360.652 71.9921s1.506 3.7741.501 6.0719" stroke="#14041e" stroke-linecap="round" stroke-linejoin="round" stroke-width=".641852"></path><path d="m358.976 74.6717s1.69-.3338 2.396 0" stroke="#14041e" stroke-linecap="round" stroke-linejoin="round" stroke-width=".641852"></path><path d="m314.48 68.4951s-.158-6.4442-3.586-11.8015c-3.427-5.3573-18.832-20.5949-20.509-25.6185-1.673-5.0235 5.691-6.6966 10.214-4.3517 0 0-.039-8.5409 5.926-9.8803 5.961-1.3393 7.955 4.5229 7.955 4.5229s1.677-9.3239 9.392-8.6564c7.72.6718 8.058 7.8991 8.058 7.8991s2.366-10.582 11.532-9.4567c8.541 1.0484 8.485 12.0711 8.485 12.0711s3.907-6.2088 10.604-5.2032c6.696 1.0055 4.706 8.0359 4.706 8.0359s5.58-6.7565 11.537-2.8455c11.219 7.3685-22.606 26.4571-23.432 43.7615" stroke="#14041e" stroke-linecap="round" stroke-linejoin="round" stroke-width=".641852"></path><path d="m308.916 34.1222c.115-3.5901 2.978-6.5298 6.722-5.8195 2.157.4108 3.556 2.4818 4.484 4.4716-.299-2.0368.839-4.2534 2.743-5.0364 1.904-.7831 4.386.1027 5.212 1.9897" stroke="#14041e" stroke-linecap="round" stroke-linejoin="round" stroke-width=".641852"></path><path d="m346.369 34.3976c.321-1.0184 1.155-1.81 2.105-2.2935.971-.4921 2.114-.6932 3.166-.4108 1.053.2824 1.982 1.0954 2.264 2.1438.141.5178.15 1.1211.548 1.4848 0-1.1981.967-2.1823 1.998-2.7942.912-.5391 1.973-.9114 3.025-.7745 1.549.2011 2.854 1.6175 2.923 3.1793" stroke="#14041e" stroke-linecap="round" stroke-linejoin="round" stroke-width=".641852"></path><path d="m317.688 43.9589c-.218 1.4548-.441 2.9097-.659 4.3646-.372 2.4689-.74 5.0192-.094 7.4283s2.593 4.6556 5.079 4.8353c2.208.1583 4.271-1.3479 5.413-3.2435 1.143-1.8956 1.545-4.1335 1.913-6.3201.282 2.4562.038 5.0022.8 7.3599.762 2.3535 3.012 4.5272 5.439 4.0437 2.036-.4065 3.299-2.4647 3.932-4.4416s.911-4.1293 2.114-5.8238c.227 1.7758.466 3.5944 1.284 5.1905.821 1.5918 2.349 2.9439 4.137 3.0338 1.686.0856 3.274-.9671 4.237-2.3492.967-1.3821 1.407-3.0595 1.741-4.7112.578-2.8541.852-2.8498.882-5.7595" fill="#a238ff"></path><path d="m317.688 43.9589c-.218 1.4548-.441 2.9097-.659 4.3646-.372 2.4689-.74 5.0192-.094 7.4283s2.593 4.6556 5.079 4.8353c2.208.1583 4.271-1.3479 5.413-3.2435 1.143-1.8956 1.545-4.1335 1.913-6.3201.282 2.4562.038 5.0022.8 7.3599.762 2.3535 3.012 4.5272 5.439 4.0437 2.036-.4065 3.299-2.4647 3.932-4.4416s.911-4.1293 2.114-5.8238c.227 1.7758.466 3.5944 1.284 5.1905.821 1.5918 2.349 2.9439 4.137 3.0338 1.686.0856 3.274-.9671 4.237-2.3492.967-1.3821 1.407-3.0595 1.741-4.7112.578-2.8541.852-2.8498.882-5.7595" stroke="#14041e" stroke-linecap="round" stroke-linejoin="round" stroke-width=".641852"></path><path d="m322.767 77.7792s2.007 14.2619 9.735 14.3261c7.724.0685 9.974-5.6269 11.309-8.19 3.432-6.5769 2.191-5.7895 2.191-5.7895s-10.8 5.6782-23.235-.3466z" fill="#a238ff"></path><path d="m322.382 77.2889s13.95 7.1588 24.262.0214c0 0-11.677 16.517-24.262-.0214z" stroke="#14041e" stroke-linecap="round" stroke-linejoin="round" stroke-width=".641852"></path><path d="m322.382 77.2889s2.131 14.2064 10.116 14.8183c9.636.7402 14.142-14.7969 14.142-14.7969" stroke="#14041e" stroke-linecap="round" stroke-linejoin="round" stroke-width=".641852"></path><path d="m319.464 16.1151s3.351-3.0124 6.252-.6718" stroke="#fff" stroke-linecap="round" stroke-linejoin="round" stroke-width="1.2837"></path><path d="m340.005 13.4991s4.468-2.071 6.363 1.0527" stroke="#fff" stroke-linecap="round" stroke-linejoin="round" stroke-width="1.2837"></path><path d="m317.795 96.6561s.95 3.0681 4.184 6.1409" stroke="#fff" stroke-linecap="round" stroke-linejoin="round" stroke-width="1.2837"></path><path d="m309.306 46.9276s5.691 7.591 6.474 16.8551" stroke="#14041e" stroke-linecap="round" stroke-linejoin="round" stroke-width=".641852"></path><path d="m353.695 61.6669s.137-5.9221 5.28-14.0694" stroke="#14041e" stroke-linecap="round" stroke-linejoin="round" stroke-width=".641852"></path><path d="m460.525 54.4567s-2.257 17.8192-.042 30.7551c2.213 12.934 7.174 27.3272 23.852 26.3732 16.677-.953 20.639-19.2683 20.639-19.2683s1.406-4.1324 2.247-11.135c.841-7.0007.582-26.9257.582-26.9257s-.645-15.2212-5.162-21.8706c-4.518-6.6494-10.599-8.5139-19.771-7.6801-9.172.8339-15.561 6.8617-17.417 11.1834-1.857 4.3216-3.041 7.0469-4.924 18.568z" fill="#f8ba96"></path><path d="m460.523 54.3309 1.553-8.6104s-2.272 4.5165-7.785 4.1015c-5.51-.4169-4.892-4.9489-5.147-7.682 0 0-5.556 2.5845-10.464-4.2849-4.106-7.5045 1.186-13.3644 2.988-14.0535 1.802-.689 2.519-.7952 2.519-.7952l.366.0212s-2.885-5.0396.669-9.9094c3.555-4.86785 11.956-4.7945 13.317.3532 0 0 2.036-4.04944 5.935-4.99329 3.899-.94384 10.188 1.82209 10.121 7.58169-.067 2.2544-.09 2.5748-.192 3.0515-.103.4787-.529 1.8028-.529 1.8028l-.404.6466s3.292-1.6541 4.851 1.0384c1.05 1.5113.045 2.82.045 2.82l-.015.3165s5.047-2.2486 12.454-.9284c3.148.7412 3.553.8821 3.553.8821l.795.3899s-1.345-1.2643-.43-3.0709c.916-1.8066 3.266-2.4744 4.883-1.2044 0 0-3.798-6.7401 2.261-11.7122 8.462-5.02224 12.629 3.4936 12.629 3.4936s4.791-7.37126 11.931-1.465c5.366 4.3544 2.38 10.7684 2.38 10.7684l-.106.2277s5.836-.2432 7.208 7.9117c1.031 7.7612-3.654 10.8649-6.626 11.5423-2.224.664-5.259-.137-5.259-.137s.881 6.6166-4.076 7.5199c-4.048.7933-6.849-1.6445-6.849-1.6445s-.304 4.1614-5.434 3.9645l.129 2.1676h-2.455s-4.23-2.5941-5.046-6.1302c-.816-3.536-.209-6.0722-.209-6.0722s-5.804 1.0828-5.754-4.7289c0 0-6.514 1.6252-9.34-6.0839 0 0-1.745 5.8986-8.943 5.1478 0 0-.388 3.8911-3.279 5.8869-2.89 1.9958-5.415 2.0942-5.415 2.0942s-.17 6.4776-4.881 9.8882c-.251.0155-1.953-.11-1.953-.11z" fill="#ff673d"></path><path d="m460.83 51.4645s-5.843 1.2758-9.853 3.8062c-4.593 2.2718-3.905 4.9798-3.686 5.9102.219.9322 1.091 3.646 3.243 7.7978s6.262 9.2107 7.967 10.6525 2.16 1.8298 3.817 2.3104c1.658.4806 11.747 1.2739 14.15-.1795 1.117-.5173 1.749-2.7833 1.749-2.7833s2.987-8.8903 4.005-9.8264c.729-.608 3.279-.4652 3.789.7528.51 1.2179 3.107 8.1375 3.107 8.1375s1.165 3.1037 1.773 3.5225c.608.4189 1.093.6408 4.396.9612 3.303.3205 10.26-.1003 12.097-1.4765 1.836-1.3762 6.435-5.1304 9.607-11.6331s3.741-7.4542 3.553-9.9615c-.189-2.5073-3.45-4.4143-3.45-4.4143l-2.778-1.6908-3.806-1.5364s-.691.6408-2.835.4555c.066.3803.129 2.1676.129 2.1676l-2.637.1274s-5.707.525-11.777 2.3471c-4.906 1.822-6.605 2.3895-6.605 2.3895s-2.841.6659-5.33.1351c-1.979-.4922-2.258-.7142-2.258-.7142s-10.362-4.1961-18.557-4.1942c-.112-.0733-.091-.3686-.091-.3686l.424-2.6231-.147-.0734z" fill="#fff"></path><path d="m452.675 60.0765s.729-1.4785 3.982-1.6754c3.254-.1968 19.619 2.3143 20.93 4.7772 1.311 2.4628-2.266 13.403-4.361 14.0515-5.73 1.7738-11.888-1.3743-13.44-2.82-4.128-3.8429-9.005-12.1677-7.109-14.3333z" fill="#130d1c"></path><path d="m514.836 60.1644s-.729-1.4785-3.983-1.6754-19.618 2.3143-20.929 4.7772c-1.311 2.4628 2.266 13.403 4.361 14.0515 5.73 1.7738 11.887-1.3743 13.44-2.82 4.127-3.8429 9.004-12.1677 7.109-14.3333z" fill="#130d1c"></path><path d="m471.533 89.2091s5.122 7.8828 11.484 7.6724c6.361-.2104 10.368-8.4483 10.368-8.4483s-11.725 2.82-21.852.7759z" fill="#a238ff"></path><path d="m462.091 92.8736s4.031 17.8304 18.163 18.4714c12.578 2.314 19.053-7.34 19.053-7.34s3.42-3.932 4.931-9.2128c1.511-5.279 1.657-6.1051 1.657-6.1051s-5.773 15.7949-22.014 16.2059c-13.607.345-21.79-12.0194-21.79-12.0194z" fill="#ea8251"></path><path d="m475.062 93.2817s3.21 6.2383 8.104 5.8252c5.355-.4516 8.105-7.5604 8.105-7.5604s-3.939 5.9545-9.186 5.2886c-5.246-.6659-7.025-3.5534-7.025-3.5534z" fill="#ea8251"></path><path d="m460.875 87.5541s.074-4.1132 2.297-4.4085c2.222-.2953 9.43.9458 12.199-.967 0 0-9.764.8898-12.603-.1312-2.839-1.0211-2.841-1.2411-2.841-1.2411l.286 2.4416.662 4.3081z" fill="#ea8251"></path><path d="m490.332 80.8063s.237 1.9224 2.81 2.3161c2.575.3938 10.635.1969 11.777.9111 1.142.7141 1.246 3.2812 1.246 3.2812l1.053-6.1321s-1.085.7817-3.974 1.1755c-2.888.3937-7.818.2972-7.818.2972s-2.623-.2972-3.205-.5443c-.582-.247-1.336-.7392-1.336-.7392l-.553-.5675z" fill="#ea8251"></path><path d="m462.449 54.5338.689-.6389s7.132-.5269 12.888 2.2062c5.398 2.5652 7.101 3.2253 9.36 2.598s12.104-5.721 18.648-5.142l1.128 1.0153s-5.354.2413-13.695 2.9763c-3.602 1.3839-4.88 1.9205-6.665 2.1058s-3.091-.0251-4.35-.4748c-1.26-.4498-9.242-4.0727-18.003-4.644z" fill="#ea8251"></path><path d="m456.64 70.8224s1.994.444 5.81-2.2718c3.815-2.7157 8.954-7.8596 8.954-7.8596s2.231.4285 3.964 1.0867c0 0-12.608 11.8068-12.216 14.6055 0 0-3.218-.4015-6.514-5.5608" fill="#a238ff"></path><path d="m477.08 69.2457s-6.552 8.0372-7.973 8.512c0 .0907 1.003.1506 1.947 0 .943-.1505 1.903-.2007 2.574-.7585.67-.5578 1.199-1.575 1.199-1.575l1.111-2.6115.864-2.2989.28-1.2681" fill="#a238ff"></path><path d="m459.675 58.6589s-6.03 3.3527-6.786 5.5994l-.099.1023s-1.349-3.5226.155-4.644c1.503-1.1195 2.629-1.3221 3.714-1.3144 1.083.0058 3.018.2567 3.018.2567" fill="#a238ff"></path><path d="m449.147 42.1421s-.727 6.9582 3.994 7.518c4.723.5597 6.931-1.8221 7.829-2.5034.9-.6795 1.385-2.3297 1.385-2.3297s1.214-8.6317 7.223-14.1365c4.845-4.1749 8.377-4.8775 8.377-4.8775s1.554-1.0751.371-3.2099c-1.184-2.1347-3.854-1.3897-3.854-1.3897l-.997.3513s4.48.0734 2.586 3.4724c-1.157 2.0787-5.718 1.5151-8.34.5172 0 0 1.821 8.3132-6.264 8.0913 0 0 1.712 7.819-3.547 10.3437-7.233 3.4723-6.723-9.3845-8.763-1.8472z" fill="#dc442a"></path><path d="m495.014 26.0509s-1.566-1.9822.255-3.7309c1.043-.8532 1.591-.9844 1.591-.9844s-1.857 3.2137 1.256 4.3216c3.115 1.1079 5.1-.7566 5.1-.7566s-1.353 4.8215 1.414 7.6781c2.768 2.8567 5.76 1.6252 5.76 1.6252s-4.229 4.9181-.491 9.7048c0 0-3.715 5.1362.034 8.1916l-2.131.1737-.13-1.6174s-.614-7.1184-2.253-12.2893c-1.638-5.1729-4.856-10.5175-10.405-12.3144z" fill="#dc442a"></path><path d="m489.927 67.4641s-.639-3.0477-.003-4.1923c.635-1.1446 4.78-2.239 4.78-2.239s-4.171 3.1636-4.779 6.4332" fill="#a238ff"></path><path d="m505.595 58.9113s-8.983 12.7332-13.16 15.8871c0 0 .636 1.8298 1.581 2.3934.946.5636 3.081.5674 3.081.5674s3.739-6.7536 7.237-11.4825c3.495-4.7288 7.478-7.7341 7.478-7.7341s-4.354.1042-6.217.3687z" fill="#a238ff"></path><path d="m508.115 73.9487s1.347-4.7656 2.622-6.4834c1.275-1.7179 3.642-3.2157 3.642-3.2157s-3.387 6.7807-6.081 9.701" fill="#a238ff"></path><path d="m451.964 55.2399s1.894-.5289 4.457-.6891 4.106-.0946 4.106-.0946l.301-2.9898s-5.026.9169-9.688 3.7735l-.146.247z" fill="#e2d0e7"></path><path d="m507.8 52.401.13 1.9958s6.871.2586 10.028 1.4167c0 0-2.24-1.8221-4.12-2.6424s-3.334-1.3453-3.334-1.3453-.989.5154-2.704.5771z" fill="#e2d0e7"></path><path d="m480.055 27.2709c-.845.195-1.682.442-2.462.8242s-1.503.9072-2.046 1.5924c-.078.0984-.156.2084-.169.3358s.061.2722.185.2896c.095.0135.182-.0464.262-.1004.407-.278.872-.4729 1.355-.5655.23-.0444.512-.0444.645.1486.118.1718.053.415-.078.5752s-.316.2625-.477.3918c-.225.1776-.408.4092-.529.6698-.05.108-.088.2431-.02.3377.046.0618.124.0869.198.0985.183.0251.368-.0232.552-.0174.185.0058.392.0849.451.2625.078.2374-.146.4555-.329.6254-.24.2258-.443.4941-.596.7894-.059.1139-.108.2567-.038.3629.031.0444.077.0752.124.1003.364.1969.807.1853 1.206.0792.4-.1062.769-.3011 1.15-.4633.458-.1949.942-.3474 1.347-.6369.455-.3262.782-.801 1.083-1.2758.192-.3031.382-.6158.468-.9671.063-.2625.066-.5346.065-.8048-.004-.5675-.025-1.135-.061-1.7005-.019-.2915-.046-.5964-.194-.8473-.406-.6833-1.506-.2355-2.09-.1023z" fill="#ff9d58"></path><path d="m491.272 27.3548c-.494-.0424-1.023-.0444-1.448.2201-.591.3686-.799 1.131-.924 1.824-.097.5346-.174 1.0789-.137 1.6232.036.5424.196 1.0886.531 1.5152.137.1737.298.3243.464.469.481.4247 1.001.8145 1.587 1.0713.613.2683 1.28.3821 1.943.4709.35.0483.77.0618.987-.222.204-.2682.103-.6716-.112-.9303-.215-.2586-.516-.4227-.775-.635-.485-.3996-.82-.9844-.917-1.6117-.015-.1023-.024-.2104.019-.305.082-.1775.307-.22.497-.2547.19-.0348.415-.1255.44-.3204.022-.1699-.126-.3108-.267-.4034-.141-.0927-.306-.1873-.352-.3513-.051-.1815.076-.3764.242-.4633.165-.0868.359-.0926.546-.0965l.508-.0116c.274-.0057.681-.1023.622-.4709-.057-.3629-.614-.4845-.894-.5791-.828-.2837-1.688-.4651-2.558-.5404z" fill="#ff9d58"></path><path d="m466.566 36.9287c-.276.4941-.556 1.0268-.527 1.5943.004.0618.015.1332.064.1679.078.0541.183-.0135.25-.081.401-.4034.69-.913 1.109-1.299.069-.0637.177-.1236.247-.0618.035.0309.044.0811.048.1274.017.1891-.006.3822-.067.5617-.036.1081-.087.2142-.102.3262-.016.1119.011.2432.104.3088.088.0637.213.054.311.0019.097-.0521.171-.1351.241-.2181l.544-.6254c.076-.0868.187-.1833.291-.137.048.0212.08.0676.103.1158.076.1602.076.3474.067.525-.008.1776-.021.3609.032.5308.055.1699.2.3243.375.3281.175.0039.32-.1332.442-.2625.243-.2586.494-.5269.616-.8628.069-.191.093-.3956.107-.5983.019-.2837.013-.5906-.154-.8184-.229-.3107-.701-.3532-1.043-.1795-.219.112-.453.3011-.678.2007l.434-1.0191c.107-.2509.215-.5115.206-.7836-.01-.2722-.172-.5598-.432-.6196-.506-.1139-1.165.691-1.454 1.0288-.451.5269-.801 1.1349-1.138 1.741z" fill="#ff9d58"></path><path d="m497.292 35.6971c-.057.4149.103.8357.354 1.1677s.588.5848.929.8203c.141.0965.289.193.457.222.167.0289.361-.0309.445-.1815.124-.2258-.052-.496-.225-.6852-.135-.1486-.279-.2972-.35-.4864-.07-.1891-.044-.4323.116-.552.208-.1544.543-.0463.727-.2297.234-.2335-.009-.6678.149-.9593.081-.1505.253-.2258.352-.3648.072-.1003.1-.2258.112-.3493.089-1.0462-1.028-1.2565-1.677-.6389-.237.2258-.401.5501-.603.8087-.321.4131-.713.8898-.788 1.4264z" fill="#ff9d58"></path><g stroke-linecap="round" stroke-linejoin="round"><path d="m507.802 54.4467c-.939-17.5605-4.712-29.265-20.607-29.9405 0 0-15.765-1.1948-22.37 12.5962-1.695 3.5399-3.292 9.8534-4.3 17.3559" stroke="#130d1c" stroke-width=".261673"></path><path d="m459.927 80.8239c1.504 14.9915 6.708 28.2861 18.578 30.3261 19.379 3.332 26.497-12.3641 28.716-29.9671" stroke="#130d1c" stroke-width=".261673"></path><path d="m485.174 69.0378c1.608.3687 4.006 10.7143 5.536 12.2662 1.529 1.5518 7.647 1.6985 13.986.8126 6.336-.886 14.349-15.0726 15.66-20.394 1.311-5.3195-3.789-6.2808-3.789-6.2808-11.479-3.0014-24.019 1.5557-28.32 3.372-1.269.5366-2.626.8377-4 .8782-.03 0-.06 0-.091.002-1.596.0405-3.183-.2606-4.658-.884-4.304-1.8163-16.838-6.3696-28.315-3.3701 0 0-5.099.9612-3.788 6.2807s9.324 19.5062 15.66 20.3941c6.337.8878 12.456.7392 13.986-.8126 1.53-1.5519 3.57-11.3783 5.536-12.2662 0 0 1.058-.4439 2.593 0z" stroke="#130d1c" stroke-width=".261673"></path><path d="m462.162 45.363s-1.724 4.3873-7.55 4.4606c-5.827.0734-5.536-5.9854-5.464-7.6839-.005.1138-1.029.3223-1.118.3416-5.043 1.1234-9.593-3.1326-10.691-7.9021-1.081-4.698 1.152-10.1622 6.032-11.44.383-.1004.794-.1756 1.188-.1119 0 0-3.557-7.0605 2.298-11.4729 1.625-1.2256 3.599-1.91083 5.623-1.95908 5.205-.12546 6.065 3.87578 6.065 3.87578s3.06-6.84629 10.15-4.77717c8.157 2.31427 5.876 11.77207 4.808 12.85677 0 0 1.817-1.0481 3.538-.1911.785.3918 1.356 1.1292 1.596 1.9842.438 1.5596-.535 2.4069-.535 2.4069" stroke="#130d1c" stroke-width=".261673"></path><path d="m510.949 45.6228s1.724 4.3873 7.551 4.4606c5.826.0734 5.535-5.9854 5.463-7.6839.009.2374 2.38.4014 2.561.4111 1.846.083 3.735-.2799 5.311-1.2932 3.052-1.963 4.428-5.6805 4.215-9.2377-.204-3.4164-1.936-7.85-5.513-8.8382-.51-.1409-1.027-.2143-1.556-.195-.143.0058-.286.0193-.429.0425.227-.0367.581-1.382.636-1.5596.419-1.3376.582-2.7717.386-4.1653-.447-3.1809-2.932-5.8792-5.803-7.0894-3.483-1.46693-7.465-.1911-9.203 3.2581 0 0-3.059-6.84628-10.149-4.77715-8.158 2.31425-5.877 11.77205-4.809 12.85675-1.566-1.5885-4.599-.11-5.136 1.7931-.438 1.5596.535 2.4069.535 2.4069" stroke="#130d1c" stroke-width=".261673"></path><path d="m513.102 48.3123s-.595 4.2135-5.434 4.0089" stroke="#130d1c" stroke-width=".261673"></path><path d="m462.08 54.5371s4.77-2.0865 5.28-9.9924c0 0 8.038-.6041 8.692-7.9677 0 0 6.872.9613 9.008-5.1477 0 0 2.099 7.2651 9.305 6.0839 0 0-.344 5.8503 5.81 4.5937 0 0-2.586 6.9833 4.989 12.3395" stroke="#130d1c" stroke-width=".261673"></path><path d="m452.571 60.1644s.729-1.4785 3.983-1.6754 19.618 2.3143 20.93 4.7772c1.311 2.4628-2.267 13.403-4.362 14.0515-5.729 1.7738-11.887-1.3743-13.44-2.82-4.127-3.8429-9.004-12.1677-7.109-14.3333z" stroke="#130d1c" stroke-width=".261673"></path><path d="m514.836 60.1644s-.729-1.4785-3.983-1.6754-19.618 2.3143-20.929 4.7772c-1.311 2.4628 2.266 13.403 4.361 14.0515 5.73 1.7738 11.887-1.3743 13.44-2.82 4.127-3.8429 9.004-12.1677 7.109-14.3333z" stroke="#130d1c" stroke-width=".261673"></path><path d="m471.533 89.1049s4.047 6.7922 10.188 7.7071c6.734 1.0018 11.628-8.3788 11.628-8.3788s-12.49 2.8451-21.816.6737z" stroke="#130d1c" stroke-width=".261673"></path><path d="m480.029 86.1s4.662 1.6252 5.973-2.0691" stroke="#130d1c" stroke-width=".261673"></path><path d="m471.533 89.1068s4.472 3.4048 10.009 3.5535c8.098 0 11.807-4.2271 11.807-4.2271" stroke="#130d1c" stroke-width=".261673"></path><path d="m455.848 24.9064c-4.238-.7875-7.909 3.3932-7.075 7.574.301 1.5132 1.223 2.8219 2.656 3.4106" stroke="#130d1c" stroke-width=".261673"></path><path d="m456.641 28.3526s-1.857-3.731.729-6.5761c2.586-2.845 6.045-1.6618 6.045-1.6618" stroke="#130d1c" stroke-width=".261673"></path><path d="m509.902 24.0361s2.542-2.955 5.61-1.2932c3.75 2.2544 1.566 6.578 1.566 6.578" stroke="#130d1c" stroke-width=".261673"></path><path d="m513.103 32.242s2.887-4.2367 6.967-2.3142c4.079 1.9205 3.495 6.6493 3.495 6.6493" stroke="#130d1c" stroke-width=".261673"></path><path d="m519.606 57.2246s-3.334-3.812-9.216-5.3677" stroke="#130d1c" stroke-width=".261673"></path><path d="m449.503 56.1005s6.797-4.0765 11.463-4.6516" stroke="#130d1c" stroke-width=".261673"></path><path d="m484.945 26.7887s-.135 2.7041.061 4.7791" stroke="#130d1c" stroke-width=".261673"></path><path d="m485.009 28.2645s1.412-.4806 2.784-.3011" stroke="#130d1c" stroke-width=".261673"></path><path d="m485.009 29.8488s.55-.2084 1.241-.1853" stroke="#130d1c" stroke-width=".261673"></path><path d="m500.625 14.014c-.398.8416-.569 1.9804.12 2.5961.536.4787 1.379.4053 2.018.083.64-.3243 1.155-.8493 1.747-1.2585 1.098-.7585 2.419-1.0867 3.669-1.5422.753-.2741 1.595-.7315 1.699-1.5364.297-2.3085-3.035-2.50533-4.422-2.183-2.057.4768-3.916 1.8974-4.831 3.8391z" fill="#fffffd" stroke="#130d1c" stroke-width=".261673"></path><path d="m438.369 30.5406s-.754 3.9163 1.408 5.8619" stroke="#fff" stroke-width=".581495"></path><path d="m438.853 29.0647s.122-1.2584 1.142-2.2448" stroke="#fff" stroke-width=".581495"></path><path d="m445.747 14.5524s-1.882 2.9589-.506 5.9178" stroke="#fff" stroke-width=".581495"></path><path d="m449.887 29.3082s-1.009 2.5131.498 4.1383" stroke="#fff" stroke-width=".581495"></path><path d="m449.236 57.7262s-1.475 1.0712-.874 3.5457" stroke="#fff" stroke-width=".581495"></path><path d="m448.728 62.902s.638 1.5325.965 2.3084" stroke="#fff" stroke-width=".581495"></path><path d="m514.125 23.3453s1.845.3687 2.38 2.266" stroke="#fff" stroke-width=".581495"></path><path d="m481.511 95.8943s1.939.4073 3.878-.4806" stroke="#fff" stroke-width=".581495"></path><path d="m486.449 94.9029s.609-.3031.883-.581" stroke="#fff" stroke-width=".581495"></path></g><path d="m606.284 76.8326c-3.705-.5228-4.44-3.6623-3.987-5.902.136-.6819.429-1.3909.206-2.054-.214-.6407-.847-1.0239-1.341-1.488-2.773-2.5875-1.161-7.2393-2.194-10.89-.545-1.9268-1.879-3.881-1.182-5.7567.379-1.0221 1.314-1.772 1.662-2.8085.331-.9635.109-2.0164.061-3.0333-.126-2.6637 1.041-5.3585 3.075-7.084.594-.5036 1.271-.9535 1.622-1.6474.373-.7348.304-1.6032.351-2.4223.201-3.359 2.743-6.4492 5.999-7.2893.309-3.2335 2.704-6.1665 5.809-7.1116.909-.2766 1.877-.402 2.713-.8559 1.001-.5482 1.695-1.5029 2.505-2.3053 1.762-1.7521 4.197-2.8121 6.681-2.9118 2.124-2.3725 5.373-3.68594 8.547-3.4623.769.05364 1.572.18679 2.286-.10859.832-.35008 1.325-1.2007 1.988-1.81289 2.7-2.48364 7.004-.48307 10.654-.83063 1.701-.16048 3.436-.866 5.054-.32887.887.29476 1.622.9309 2.489 1.27565 2.602 1.03886 6.23-.50778 7.99 1.67137.406.50046.624 1.13586 1.035 1.63566.621.7606 1.598 1.1177 2.509 1.4795 3.238 1.2852 6.284 3.0585 8.997 5.2365.632.5055 1.278 1.0747 1.53 1.8462.208.6321.134 1.3567.475 1.9276.359.6011 1.064.8658 1.687 1.1845 2.023 1.033 3.519 3.0343 3.943 5.2651.192 1.0056.201 2.1126.842 2.908.469.5851 1.199.8886 1.767 1.3797 1.555 1.3399 1.583 3.6796 2.234 5.6286.413 1.2368 1.11 2.3529 1.603 3.5593 1.123 2.7453 1.137 5.8055 1.132 8.7697 0 1.5028.911 2.9309.845 4.4339-.048 1.0308-.618 1.9676-.791 2.9836-.228 1.315.214 2.6556.148 3.9896-.107 2.0959-1.443 3.9369-1.794 6.0023-.135.7851-.127 1.5963-.351 2.3565-.212.707-.614 1.3425-1.013 1.9636-.963 1.4961-1.926 2.9922-2.884 4.4922" fill="#9b4a00"></path><path d="m606.461 76.5064s-3.183.205-3.904-2.9083c-.725-3.1126.232-3.9361-.246-5.1024-.478-1.1664-2.113-1.6588-2.511-4.0295-.398-2.3708-.485-5.8431-.485-5.8431s.024-1.4312-.652-3.1232-2.075-3.186-.914-5.0393 1.701-2.5324 1.701-2.5324c.65.7566 1.274 1.5401 2.117 2.0762.734.4626 1.523.8561 2.369 1.0536 2.045.4709 4.251-.2885 5.826-1.6755 1.576-1.3871 2.583-3.3263 3.186-5.3341 1.118 1.2714 2.484 2.2112 4.139 2.5504 2.908.5954 6.305-1.8431 7.774-4.4265 2.957-5.1931 2.354-10.0329 2.723-12.9791 3.075 4.0985 8.861 6.6041 13.699 4.916s9.69-5.5339 9.548-10.6562c4.268 7.2894 8.885 12.0816 19.818 5.8566-.199.5361-.19 1.1264.019 1.66 1.061 2.7355 2.662 5.3415 4.659 7.4677.76.8064 1.593 1.5693 2.589 2.0598 1.233.6021 2.63.7483 3.993.89-.617 1.8079-.681 3.94.224 5.6271.901 1.6878 2.528 2.9704 4.378 3.4599-1.081 1.654-1.547 3.7359-1.087 5.6563s1.902 3.6194 3.782 4.2127c-1.105 1.7513-1.165 4.1036-.158 5.9122.424.7562 1.011 1.409 1.417 2.1724.886 1.6569.664 3.4032.61 5.2802l-2.195 3.1483z" fill="#702b02"></path><path d="m680.599 61.0667c-1.072-.1413-2.054-.1079-2.952.0496l.014-.002c-1.277-11.4071-13.874-33.1875-34.255-25.8408-20.382 7.3467-24.461 27.1106-24.461 27.1106-8.746-.332-14.011 12.9993-13.824 25.639.216 14.6689 14.222 27.1309 23.016 9.0826l-1.332-19.3129s.566-9.6672-3.7-13.688c.01.0079.02.0111.026.0197 0 0 6.09-23.482 25.591-25.9208 19.495-2.4427 25.918 24.0739 25.918 24.0739l.009-.0013c-4.266 2.6295-5.674 8.3697-5.674 8.3697l-1.801 30.792c9.099 13.046 18.009 5.427 20.95-3.4979 3.348-7.3723 1.476-35.6812-7.519-36.8648z" fill="#fff4e2"></path><path d="m606.938 87.8552c.128 1.0523.349 2.1335.979 2.9821.298.4079.706.7578 1.196.8703 1.079.2485 2.05-.6994 2.624-1.6414 1.281-2.0915 1.888-4.5272 2.097-6.9573.194-2.24.267-4.5988-.276-6.8031-.326-1.3197-1.753-2.5559-3.164-2.2774-1.439.2824-2.2 1.5568-2.54 2.8785-.912 3.5459-1.369 7.2844-.918 10.9345z" fill="#a238ff"></path><path d="m608.266 85.729c.078.6415.21 1.2987.595 1.8163.181.2463.428.4643.729.529.656.1498 1.245-.4235 1.598-1.0005.78-1.2724 1.148-2.7579 1.278-4.2326.118-1.3649.165-2.7994-.169-4.1415-.261-1.0614-1.66-1.9399-2.585-1.027-.662.6543-.808 1.6616-1.037 2.5165-.489 1.794-.638 3.6894-.41 5.5352z" fill="#f673ff"></path><path d="m682.465 88.9819c.51 1.683 2.217 4.8279 4.284 2.7736 1.495-1.4881 1.877-3.7271 1.919-5.748.056-2.9386-.231-5.9407-1.224-8.719-.645-1.809-2.805-3.3717-4.608-1.966-1.516 1.1812-1.294 3.5022-1.35 5.2056-.072 2.3024.049 4.638.575 6.887.1.4364.232.9904.405 1.5714z" fill="#a238ff"></path><path d="m683.464 86.6493c.188.6164.429 1.244.892 1.6891.223.2121.501.3833.809.4001.673.0393 1.158-.6319 1.407-1.2547.556-1.3859.665-2.9092.546-4.3902-.112-1.3646-.312-2.787-.865-4.0505-.436-1.0034-1.968-1.628-2.723-.5753-.544.7547-.514 1.7743-.599 2.6553-.18 1.8482-.005 3.744.533 5.5262z" fill="#f673ff"></path><path d="m648.473 47.7922s-15.46.2691-20.289 22.0383c-5.149 23.2244 2.944 44.0945 15.081 46.8355 12.917 2.915 22.799-4.252 26.328-23.9932 3.529-19.7409-5.068-47.4329-21.119-44.876z" fill="#f2a35e"></path><path d="m635.058 78.2451s.842 15.9209 13.197 16.4252c12.356.5044 15.154-16.086 15.154-16.086l.364-.7135s-6.513 4.3785-15.417 4.2728c-8.903-.1104-13.298-3.8985-13.298-3.8985z" fill="#f673ff"></path><path d="m635.95 112.22s3.392 4.96 11.764 4.881 11.482-3.59 11.482-3.59.153-3.929-2.306-5.9c-2.459-1.975-4.722-3.208-4.722-3.208s-1.415-1.543-2.311-2.452c-.898-.914-1.611-1.821-3.012-1.342s-2.611 2.152-3.04 2.857-3.386 2.508-4.178 3.176c-.791.668-1.242 1.16-2.01 2.22-.767 1.059-1.67 3.368-1.67 3.368z" fill="#702b02"></path><path d="m647.604 75.2955s-.837.2744-4.295.3407-5.781-.5553-6.095-.2029c-.314.3523-.147.9067 1.396 1.9255s4.312 1.6552 6.701 1.8742c2.388.2191 2.86-.2815 3.058-.7912.199-.5096.381-3.5966-.764-3.151z" fill="#702b02"></path><path d="m652.336 75.0623s-1.254.3815-1.474 1.3789c-.219.9973-.593 3.2872 2.537 3.0286 3.134-.2585 6.745-2.1429 7.557-2.9019.811-.7591.361-1.6438.056-1.6865-.306-.0427-8.681.1854-8.681.1854z" fill="#702b02"></path><path d="m608.108 99.1651s7.963 4.0609 12.688-3.1103c4.724-7.176 3.698-20.6858 5.156-25.4327 0 0 1.042 2.1182.795 5.5213-.247 3.403-.11 8.2301.022 12.3112.133 4.0856 1.364 8.6471 1.364 8.6471s-2.468 7.1283-9.249 8.8563c-6.782 1.729-10.781-6.7922-10.781-6.7922z" fill="#feceb7"></path><path d="m669.324 69.5202s3.402 7.015 3.789 18.6302c.386 11.6153 7.13 15.8476 10.937 13.6176 3.811-2.2352 5.059-7.1633 5.059-7.1633s-2.504 12.3793-10.703 13.7253c-5.94.856-11.197-6.62-11.197-6.62s2.305-7.8936 2.941-13.6822-.438-13.045-.438-13.045l-.711-4.0915.205-1.3447" fill="#feceb7"></path><path d="m635.359 79.3202s2.399 8.5403 12.072 10.2623 15.874-10.4575 15.874-10.4575-6.19 8.6403-15.779 7.6002c-9.588-1.0401-12.167-7.405-12.167-7.405z" fill="#c01fc3"></path><path d="m644.531 116.845s-2.718-2.595-1.813-5.571c.904-2.982 2.625-2.675 3.415-5.086.789-2.41 1.893-5.861.508-5.601-1.386.261-2.056 1.964-3.367 3.073-1.31 1.109-4.12 2.923-4.764 4.059-.645 1.131-1.077 1.977-1.545 2.547-.467.57-1.07 1.338-1.014 1.954.056.617 2.134 2.295 4.147 3.198 2.014.902 4.433 1.427 4.433 1.427z" fill="#9b4a00"></path><path d="m633.258 61.1388c-.074.4333-.122.8817-.005 1.3062.118.4246.432.816.86.9141.573.1288 1.119-.2834 1.555-.6796 1.176-1.0619 2.304-2.1966 3.165-3.5229.888-1.3679 2.576-7.9045-.93-5.4784-2.374 1.6431-4.171 4.6542-4.645 7.4606z" fill="#f9bc8f"></path><path d="m660.937 8.21722c-2.53.86227-5.376-.80346-7.932-.02661-1.364.41252-2.522 1.49994-3.948 1.57858-.997.05445-1.97-.40654-2.965-.33828-2.434.15807-3.006 5.04989-5.389 5.59049-1.883.4309-4.674-2.6799-6.47-1.975-1.373.5408-2.079 2.0326-3.149 3.0509-.169.1606-.354.314-.582.361-.241.0535-.487-.0238-.715-.1083-.86-.3316-1.634-.873-2.501-1.1895-.868-.3211-1.923-.3757-2.639.2017-.302.2456-.518.5772-.755.8884-1.326 1.7128-3.575 2.6661-5.731 2.4321 0 0 1.121-.4951 2.633-1.9669s4.352-3.7268 7.44-3.7114c0 0 2.962-4.34839 10.377-3.43958 0 0 .979-.08007 2.488-1.66886s2.355-2.01121 5.311-1.57299 5.304.47089 5.304.47089c2.342-.10735 3.237-.96897 4.581-.44861" fill="#cb6100"></path><path d="m626.804 77.7881s.889-15.0773-7.856-15.4093c-8.746-.332-14.011 12.9993-13.824 25.639.216 14.6692 14.222 27.1302 23.016 9.0826" stroke="#14041e" stroke-linecap="round" stroke-linejoin="round" stroke-width=".534247"></path><path d="m648.367 47.6056s-15.46.2691-20.289 22.0383c-5.15 23.2244 2.944 44.0941 15.08 46.8361 12.918 2.915 22.8-4.253 26.329-23.9938 3.528-19.7409-5.069-47.4329-21.12-44.876z" stroke="#14041e" stroke-linecap="round" stroke-linejoin="round" stroke-width=".534247"></path><path d="m668.969 70.6419s2.639-10.7596 11.63-9.5753c8.99 1.1843 10.867 29.4926 7.519 36.8648-2.941 8.9246-11.852 16.5436-20.95 3.4976" stroke="#14041e" stroke-linecap="round" stroke-linejoin="round" stroke-width=".534247"></path><path d="m634.771 77.7519s1.057 16.5979 13.525 16.9199c12.469.3221 15.628-17.3168 15.628-17.3168s-14.753 10.6111-29.157.3921z" stroke="#14041e" stroke-linecap="round" stroke-linejoin="round" stroke-width=".534247"></path><path d="m635.059 78.245s2.767 7.1293 12.004 8.4089c10.802 1.7549 16.853-9.0249 16.853-9.0249" stroke="#14041e" stroke-linecap="round" stroke-linejoin="round" stroke-width=".534247"></path><path d="m635.955 112.243c-.193-.752.544-1.374.972-2.023.208-.316.349-.675.521-1.014 1.448-2.858 4.829-4.134 6.943-6.543.839-.957 1.67-2.194 2.942-2.236.725-.02 1.398.38 1.921.883.523.502.93 1.11 1.428 1.635 1.547 1.637 3.823 2.38 5.565 3.81.997.819 1.82 1.87 2.262 3.079.433 1.183.5 2.464.56 3.724" stroke="#14041e" stroke-linecap="round" stroke-linejoin="round" stroke-width=".534247"></path><path d="m646.277 75.3625c-2.762.2662-5.561.373-8.311-.0208-.18-.0246-.365-.0541-.543-.0088-.179.0452-.346.1792-.371.3597-.024.176.087.3378.199.4718.786.9657 1.851 1.6848 2.992 2.174 1.142.4892 2.37.7719 3.601.9478.908.1279 1.821.2048 2.735.1515.503-.0298 1.036-.1144 1.406-.4555.432-.4043.519-1.0525.524-1.643.009-.5346.112-1.5312-.264-1.9763-.376-.445-1.478-.0492-1.972-.0005z" stroke="#14041e" stroke-linecap="round" stroke-linejoin="round" stroke-width=".534247"></path><path d="m650.925 78.6431c.111.306.312.5546.676.6551 2.161.6068 4.449-.3589 6.416-1.1864 1.245-.5214 2.582-1.0024 3.365-2.1717.431-.6461.027-1.0968-.674-1.1108-1.846-.0382-3.694.0212-5.539.1086-.768.0349-1.508.0335-2.27.0082-.59-.0197-1.243.0237-1.605.5651-.372.5597-.537 1.1961-.518 1.8619.01.4096.004.8698.149 1.2654z" stroke="#14041e" stroke-linecap="round" stroke-linejoin="round" stroke-width=".534247"></path><path d="m618.949 62.3835s4.08-19.7639 24.461-27.1106 32.978 14.4337 34.255 25.8362" stroke="#14041e" stroke-linecap="round" stroke-linejoin="round" stroke-width=".534247"></path><path d="m623.13 64.1197s6.089-23.482 25.59-25.9208c19.496-2.4427 25.918 24.0739 25.918 24.0739" stroke="#14041e" stroke-linecap="round" stroke-linejoin="round" stroke-width=".534247"></path><path d="m606.245 76.5566c-3.706-.5228-4.44-3.6623-3.988-5.902.137-.6819.429-1.3909.207-2.054-.215-.6407-.848-1.0239-1.342-1.488-2.773-2.5875-1.161-7.2393-2.194-10.89-.545-1.9268-1.879-3.881-1.181-5.7567.378-1.0221 1.313-1.772 1.661-2.8085.331-.9635.109-2.0164.061-3.0333-.125-2.6637 1.041-5.3585 3.075-7.084.594-.5036 1.271-.9535 1.622-1.6474.373-.7348.305-1.6032.351-2.4223.202-3.359 2.744-6.4492 5.999-7.2893.309-3.2335 2.705-6.1665 5.809-7.1116.909-.2766 1.877-.402 2.714-.8559 1.001-.5482 1.695-1.5029 2.504-2.3053 1.762-1.7521 4.198-2.8121 6.682-2.9118 2.124-2.3725 5.372-3.68594 8.546-3.4623.769.05364 1.573.18679 2.286-.10859.833-.35008 1.325-1.20071 1.989-1.81289 2.699-2.48364 7.003-.48307 10.654-.83063 1.7-.16048 3.435-.866 5.053-.32887.888.29476 1.623.9309 2.49 1.27565 2.601 1.03886 6.229-.50778 7.99 1.67137.405.50045.624 1.13586 1.034 1.63566.621.7606 1.598 1.1177 2.51 1.4795 3.238 1.2852 6.283 3.0585 8.997 5.2365.631.5055 1.277 1.0747 1.529 1.8462.209.6321.134 1.3567.475 1.9276.359.6011 1.064.8658 1.688 1.1845 2.022 1.033 3.518 3.0343 3.943 5.2651.191 1.0056.201 2.1126.841 2.908.47.5851 1.199.8886 1.768 1.3797 1.555 1.3399 1.582 3.6796 2.234 5.6286.413 1.2368 1.109 2.3529 1.602 3.5593 1.124 2.7453 1.137 5.8055 1.132 8.7697.001 1.5028.911 2.9309.846 4.4339-.049 1.0308-.618 1.9677-.791 2.9836-.229 1.315.213 2.6556.147 3.9896-.107 2.0959-1.443 3.9369-1.793 6.0023-.136.7851-.127 1.5963-.351 2.3565-.213.707-.615 1.3425-1.014 1.9636-.963 1.4961-1.926 2.9922-2.884 4.4922" stroke="#14041e" stroke-linecap="round" stroke-linejoin="round" stroke-width=".534247"></path><path d="m606.898 87.5792c.128 1.0523.35 2.1335.979 2.9821.299.4079.706.7578 1.196.8703 1.079.2485 2.051-.6994 2.624-1.6414 1.282-2.0915 1.889-4.5272 2.097-6.9573.194-2.24.268-4.5988-.275-6.8031-.327-1.3197-1.754-2.5559-3.165-2.2774-1.439.2824-2.199 1.5568-2.54 2.8786-.912 3.5458-1.369 7.2843-.918 10.9344z" stroke="#14041e" stroke-linecap="round" stroke-linejoin="round" stroke-width=".534247"></path><path d="m608.226 85.4575c.078.6415.211 1.2988.595 1.8163.181.2463.429.4643.729.529.656.1498 1.245-.4235 1.599-1.0005.779-1.2724 1.147-2.7579 1.278-4.2326.118-1.3649.165-2.7994-.17-4.1414-.261-1.0614-1.66-1.94-2.585-1.0271-.662.6543-.808 1.6616-1.037 2.5165-.488 1.794-.638 3.6895-.41 5.5352z" stroke="#14041e" stroke-linecap="round" stroke-linejoin="round" stroke-width=".534247"></path><path d="m682.427 88.7102c.51 1.683 2.217 4.8279 4.284 2.7737 1.495-1.4882 1.877-3.7271 1.919-5.7481.056-2.9386-.231-5.9406-1.223-8.719-.646-1.809-2.806-3.3717-4.609-1.966-1.516 1.1812-1.294 3.5023-1.349 5.2057-.073 2.3023.048 4.6379.574 6.8869.1.4364.232.9904.405 1.5714z" stroke="#14041e" stroke-linecap="round" stroke-linejoin="round" stroke-width=".534247"></path><path d="m683.425 86.3779c.187.6164.428 1.2439.891 1.6891.223.2121.502.3833.809.4.673.0393 1.159-.6318 1.407-1.2547.557-1.3858.666-2.9091.546-4.3901-.112-1.3647-.312-2.787-.865-4.0506-.436-1.0033-1.968-1.628-2.722-.5752-.544.7547-.515 1.7743-.599 2.6553-.18 1.8482-.006 3.744.533 5.5262z" stroke="#14041e" stroke-linecap="round" stroke-linejoin="round" stroke-width=".534247"></path><path d="m603.275 60.5135c-.077-1.6092-.634-3.1587-.841-4.7586-.195-1.4888-.098-2.9963.006-4.4907.046-.6923.093-1.38.138-2.0723.048-.7114.095-1.4274.22-2.1264.265-1.4847.873-2.9061 1.769-4.1155" stroke="#14041e" stroke-linecap="round" stroke-linejoin="round" stroke-width=".534247"></path><path d="m612.729 30.1925c.349-1.4217.812-3.0053 2.095-3.7162.373-.2089.811-.333 1.11-.639.417-.4265.464-1.0814.665-1.6457.54-1.5291 2.166-2.3364 3.65-2.9916" stroke="#14041e" stroke-linecap="round" stroke-linejoin="round" stroke-width=".534247"></path><path d="m651.17 12.2642c.93-.7821 2.214-1.1268 3.41-.9139.429.079.849.2205 1.283.2002.466-.0202.901-.2331 1.349-.3494 1.109-.2912 2.355.013 3.207.7778.157.1418.316.3021.527.3327.191.0241.375-.0682.552-.1453 1.406-.6065 3.206-.1097 4.095 1.1383" stroke="#14041e" stroke-linecap="round" stroke-linejoin="round" stroke-width=".534247"></path><path d="m683.941 29.63c1.097.2505 1.845 1.2653 2.311 2.283.466 1.0178.764 2.1396 1.446 3.0322.272.3553.594.6659.879 1.01.824.999 1.295 2.279 1.313 3.5728" stroke="#14041e" stroke-linecap="round" stroke-linejoin="round" stroke-width=".534247"></path><path d="m692.188 58.2701c.527-1.2359.614-2.6527.236-3.9414-.112-.3831-.265-.7603-.299-1.1593-.054-.7014.267-1.3723.412-2.0602.209-.9975.046-2.0307-.118-3.0357" stroke="#14041e" stroke-linecap="round" stroke-linejoin="round" stroke-width=".534247"></path><path d="m809.089 69.4229c.817-5.5567 7.324-12.5006 12.137-17.6327 4.25-4.5335 14.506-14.6845 7.773-20.4353-6.976-5.9571-15.235 4.5578-15.235 4.5578s12.642-14.9231 2.382-20.1037c-10.187-5.1442-17.305 8.1854-17.305 8.1854 2.281-7.9792-.724-18.5507-8.392-16.78743-7.667 1.76327-6.838 18.44563-6.838 18.44563.105-5.1807-1.658-10.2602-8.085-8.4969-6.426 1.7633-2.503 15.1172-2.503 15.1172-2.487-6.6325-9.516-8.1733-12.731-1.1283-3.211 7.045 4.19 18.8095 6.365 25.6523 2.176 6.8387 1.707 10.8748 1.707 10.8748l1.335 7.9914z" fill="#f673ff"></path><path d="m768.883 69.9647-.473-3.2434s.934-5.8196-5.387-18.7731c0 0 7.918 14.4741 10.373-1.0879 0 0 8.695 4.5092 11.429-6.7255-.352 0 6.689 9.0994 13.653 2.293 0 0 1.424 11.712 11 8.23 0 0-1.625 4.9056.296 7.4372 1.921 2.5317 10.466-4.8247 10.466-4.8247s-9.18 8.784-11.142 16.1525" fill="#c01fc3"></path><path d="m768.684 72.0031s.368-9.7951-6.005-8.3189c-6.374 1.4761-8.315 15.6227-7.304 23.9376 1.011 8.3148 9.289 18.1502 14.033 4.8611" fill="#ff8066"></path><path d="m809.406 72.0031s-.368-9.7951 6.005-8.3189c6.374 1.4761 7.737 15.465 6.726 23.7799-1.011 8.3148-10.014 18.2879-14.753 4.9986" fill="#ff8066"></path><path d="m802.06 105.384c5.152-7.5386 7.187-19.5822 7.401-30.1982.186-9.1197-3.45-19.2059-10.301-25.4542-.315-.2871-.635-.5581-.958-.8169-6.985-5.5203-15.773-3.7166-21.285 3.2435-5.455 6.8872-8.177 15.748-8.739 24.4309-.215 3.3122-.118 6.6447.246 9.9407.813 7.3523 2.671 12.6172 5.405 16.9242 2.197 3.461 2.66 5.14 11.282 8.99 6.917 2.132 14.059-2.406 15.208-4.541 1.148-2.136 3.33-4.797 3.33-4.797l1.836-3.599-1.947 3.306-1.138 2.094-.061.493-.279-.02z" fill="#ff8066"></path><path d="m773.755 84.4753s5.828-6.1391 14.494-6.3332c8.667-.1941 15.623 5.5163 15.623 5.5163s-4.521 11.5017-15.756 12.0355c-11.235.5298-14.357-11.2186-14.357-11.2186z" fill="#d71f14"></path><path d="m776.429 84.8878s6.612-5.0593 14.122-3.6236 9.949 3.0938 9.949 3.0938-13.993 15.0121-24.071.5298z" fill="#14041e"></path><path d="m763.702 81.0176s-.728-.3114-1.476-.1537z" fill="#d09aff"></path><path d="m814.917 81.0176s.728-.3114 1.477-.1537z" fill="#d09aff"></path><path d="m794.113 89.0979s-.663-1.3468-2.693-2.3214c-1.966-.9464-4.23-1.0191-6.329-.4206-3.195.9059-4.627 2.742-4.627 2.742s2.993 2.0221 6.135 2.0625c3.143.0364 7.518-2.0625 7.518-2.0625z" fill="#ff3d3d"></path><path d="m778.929 83.3591s10.208 1.6298 17.75-.5904c0 0-5.751-2.0423-8.21-1.8482s-6.798.9018-9.54 2.4386z" fill="#fff"></path><path d="m755.665 86.5541s4.109 7.7366 8.663 6.4748c3.583-.9909 4.032-10.2763 4.032-10.2763s.772 8.2906 1.334 9.6979c.13.2589-1.334 4.9299-4.105 6.1149-2.77 1.1849-8.505-.7644-9.928-12.0153z" fill="#cb553e"></path><path d="m809.272 83.0033s-1.145 8.509-1.699 9.6858c.239.7361 3.126 7.6879 7.061 6.0704 3.935-1.6177 6.952-5.852 7.797-11.1135.846-5.2615 0-9.2571 0-9.2571s-1.544 16.5205-8.848 14.0616c-4.299-1.4478-4.315-9.4472-4.315-9.4472z" fill="#cb553e"></path><path d="m775.296 32.5641c-1.343.922-2.022 2.5842-2.152 4.2059-.06.7684-.016 1.557.227 2.289.242.732.695 1.4074 1.334 1.8442.239.1618.51.2912.801.3276.688.0849 1.355-.4004 1.666-1.0192.312-.6187.34-1.3426.291-2.0342-.048-.6916-.165-1.3831-.117-2.0747.065-.8816.396-1.7309.413-2.6166.032-1.6136-1.379-1.6702-2.459-.9261z" fill="#fbbbff"></path><path d="m761.478 34.7237c.044 1.464.319 3.0169 1.314 4.0927.296.3195.692.6026 1.129.5783.489-.0283.877-.4408 1.092-.8857.594-1.2496.182-2.7096.048-4.0846-.085-.8654-.048-1.739.101-2.5923.097-.5581.243-1.1445.033-1.6703-.498-1.2456-2.152-.9221-2.69.0769-.768 1.4276-1.072 2.8713-1.023 4.489z" fill="#fbbbff"></path><path d="m826.453 34.8489c-2.039 1.3023-3.495 3.4861-3.911 5.8722-.065.3842-.105.7846.024 1.1486.259.7279 1.153 1.0797 1.913.9301s1.383-.6835 1.881-1.278c1.14-1.3669 1.747-3.1019 2.123-4.8409.125-.5823.356-1.7187-.194-2.1757-.51-.4287-1.379.0485-1.836.3397z" fill="#fbbbff"></path><path d="m768.979 71.9909s.368-9.795-6.006-8.3189c-6.373 1.4762-8.314 15.6228-7.303 23.9376 1.011 8.3149 9.289 18.1504 14.033 4.8612" stroke="#14041e" stroke-linecap="round" stroke-linejoin="round" stroke-width=".566187"></path><path d="m809.7 71.9909s-.368-9.795 6.006-8.3189c6.374 1.4762 7.737 15.465 6.726 23.7799-1.012 8.3149-10.014 18.2881-14.754 4.9986" stroke="#14041e" stroke-linecap="round" stroke-linejoin="round" stroke-width=".566187"></path><path d="m798.497 48.9026c-6.985-5.5203-15.773-3.7166-21.285 3.2435-5.456 6.8872-8.177 15.7481-8.74 24.431-.214 3.3121-.117 6.6446.247 9.9406 2.253 20.3623 13.366 29.2233 25.026 25.6483 11.659-3.575 15.699-21.7618 16.011-36.9923.186-9.1196-3.45-19.2059-10.301-25.4542-.315-.2871-.635-.558-.958-.8169z" stroke="#14041e" stroke-linecap="round" stroke-linejoin="round" stroke-width=".566187"></path><path d="m768.365 67.2714s.518-3.4982-1.662-10.3369c-2.176-6.8388-9.326-18.757-6.115-25.802s9.949-5.492 12.436 1.1404c0 0-3.628-13.366 2.798-15.1293 6.427-1.7633 8.186 3.3163 8.085 8.4969 0 0-.829-16.68235 6.839-18.44562 7.667-1.76327 10.672 8.80822 8.391 16.78742 0 0 7.118-13.3296 17.305-8.1854 10.261 5.1806-2.382 20.1037-2.382 20.1037s8.255-10.519 15.235-4.5578c6.733 5.7508-3.523 15.9018-7.773 20.4353-4.809 5.1321-11.316 12.076-12.137 17.6327" stroke="#14041e" stroke-linecap="round" stroke-linejoin="round" stroke-width=".566187"></path><path d="m772.696 45.174s-4.429-8.2542.776-13.1518c5.209-4.8975 10.491 2.3821 11.348 5.6983" stroke="#14041e" stroke-linecap="round" stroke-linejoin="round" stroke-width=".566187"></path><path d="m800.464 39.8395s3.781-6.8629 10.167-5.7225c1.448.2588 2.794 1.0151 3.628 2.2243 3.409 4.9501-3.41 12.3833-3.41 12.3833" stroke="#14041e" stroke-linecap="round" stroke-linejoin="round" stroke-width=".566187"></path><path d="m774.046 84.4592s5.828-6.1391 14.495-6.3332c8.666-.1941 15.622 5.5163 15.622 5.5163s-4.521 11.5017-15.756 12.0355c-11.235.5298-14.357-11.2186-14.357-11.2186z" stroke="#14041e" stroke-linecap="round" stroke-linejoin="round" stroke-width=".566187"></path><path d="m776.724 84.8718s6.612-5.0593 14.122-3.6236c7.514 1.4357 9.949 3.0938 9.949 3.0938s-13.993 15.0121-24.071.5298z" stroke="#14041e" stroke-linecap="round" stroke-linejoin="round" stroke-width=".566187"></path><path d="m763.018 78.8094s-.971 2.1758-.348 4.1979" stroke="#14041e" stroke-linecap="round" stroke-linejoin="round" stroke-width=".566187"></path><path d="m763.997 81.0055s-.728-.3114-1.476-.1537" stroke="#14041e" stroke-linecap="round" stroke-linejoin="round" stroke-width=".566187"></path><path d="m816.186 78.8094s.97 2.1758.348 4.1979" stroke="#14041e" stroke-linecap="round" stroke-linejoin="round" stroke-width=".566187"></path><path d="m815.212 81.0055s.728-.3114 1.476-.1537" stroke="#14041e" stroke-linecap="round" stroke-linejoin="round" stroke-width=".566187"></path><path d="m787.223 72.3226s3.316.4125 3.469 0c.154-.4125-.622-3.1585-.622-3.1585" stroke="#14041e" stroke-linecap="round" stroke-linejoin="round" stroke-width=".566187"></path><path d="m780.759 89.0858s1.436-1.836 4.627-2.7419c2.098-.5986 4.363-.5258 6.329.4206 2.03.9787 2.693 2.3213 2.693 2.3213" stroke="#14041e" stroke-linecap="round" stroke-linejoin="round" stroke-width=".566187"></path><path d="m779.219 83.343s10.207 1.6298 17.75-.5904" stroke="#14041e" stroke-linecap="round" stroke-linejoin="round" stroke-width=".566187"></path><path d="m791.708 8.67102s-2.281.23861-3.733 2.66508" stroke="#fff" stroke-linecap="round" stroke-linejoin="round" stroke-width="1.21326"></path><path d="m786.803 13.6656s-.87 2.8108-1.109 5.3788" stroke="#fff" stroke-linecap="round" stroke-linejoin="round" stroke-width="1.21326"></path><path d="m813.217 16.359s3.535.4368 4.801 3.389" stroke="#fff" stroke-linecap="round" stroke-linejoin="round" stroke-width="1.21326"></path></svg>